<svg version="1.1" id="Layer_1" xmlns="http://www.w3.org/2000/svg" xmlns:xlink="http://www.w3.org/1999/xlink" x="0px" y="0px"
	 width="100%" viewBox="0 0 1024 1024" enable-background="new 0 0 1024 1024" xml:space="preserve">
<path fill="none" opacity="1.000000" stroke="#000000" stroke-linecap="round" stroke-linejoin="round" stroke-width="7.000000"
	d="
M552.500000,500.500000 
	C566.801697,488.817688 583.547424,482.227814 600.985291,476.951477 
	C611.313110,473.826477 621.987244,472.603455 632.502197,470.510986 
	C642.429016,468.535553 648.924683,462.800995 653.080261,453.535980 
	C663.434204,430.451233 670.591553,406.408295 674.362915,381.479248 
	C677.448792,361.081085 677.660950,340.479553 674.472656,320.004272 
	C667.865051,277.571045 649.714905,241.448303 615.463318,214.546677 
	C588.246033,193.169922 557.156677,180.656250 523.004822,175.468262 
	C510.561859,173.578064 498.035187,172.355362 485.502136,172.607071 
	C449.852417,173.323013 415.869263,180.970993 385.041504,199.568771 
	C361.597778,213.711914 342.430695,232.410217 327.428741,255.453598 
	C317.953339,270.008057 310.868622,285.566620 305.486938,301.995728 
	C303.361847,308.483215 303.550415,312.485260 312.521912,314.919250 
	C324.188965,318.084564 336.106232,320.339233 347.473022,324.572449 
	C348.183441,324.837036 349.173798,324.647827 349.447815,325.036774 
	C356.264191,334.711700 367.444702,339.833038 374.192047,349.870911 
	C384.545502,365.273590 388.233398,382.010620 386.882080,399.991150 
	C385.805176,414.320251 383.854736,428.594696 384.555389,442.997314 
	C384.903809,450.159058 386.454468,457.115997 389.983185,463.509277 
	C391.467102,466.197845 392.850494,468.953735 393.500000,472.000000 
"/>
<path fill="none" opacity="1.000000" stroke="#000000" stroke-linecap="round" stroke-linejoin="round" stroke-width="7.000000"
	d="
M470.000000,723.750000 
	C468.333344,723.666687 466.666656,723.510742 465.000000,723.510437 
	C390.000000,723.498413 314.999939,723.459351 240.000153,723.586060 
	C234.665695,723.595093 229.332245,724.824951 224.001740,725.513367 
	C223.488754,725.579651 222.828018,725.680969 222.525345,726.022461 
	C216.184631,733.176819 207.432938,737.682617 202.342743,746.408264 
	C192.146042,763.887512 193.663376,785.526062 206.534775,800.470032 
	C216.739334,812.317810 229.780670,817.160706 245.500290,817.123718 
	C347.833069,816.882874 450.166656,817.013184 552.500000,816.957642 
	C557.166870,816.955078 561.910706,816.735901 566.472839,815.858643 
	C569.517334,815.273193 570.866028,816.380066 572.559875,818.451050 
	C575.165588,821.637146 578.062744,824.606934 581.019409,827.479980 
	C589.993042,836.200012 599.496338,834.884216 607.655151,825.636902 
	C617.062683,814.974365 623.633850,802.215454 633.572876,792.071411 
	C635.934570,789.661011 635.223877,786.572144 636.777832,783.872131 
	C642.591858,773.769592 650.732239,765.965088 658.819031,757.820312 
	C666.034790,750.552856 674.039185,747.151672 683.976257,745.822449 
	C698.617126,743.864014 712.716125,739.219604 726.460815,733.898743 
	C740.741821,728.370239 755.367676,723.628723 768.996887,716.494080 
	C772.531067,714.644043 776.160217,712.933289 779.002441,710.002380 
	C786.782288,701.979492 785.396545,697.195740 778.495605,691.505310 
	C771.921326,686.084106 764.139160,686.725342 756.513000,687.611816 
	C752.812500,688.041992 749.252380,689.124573 745.491089,688.030640 
	C743.292908,687.391357 741.688232,689.066833 740.029602,690.049988 
	C737.625610,691.474976 735.671143,693.771545 732.500000,693.500000 
"/>
<path fill="none" opacity="1.000000" stroke="#000000" stroke-linecap="round" stroke-linejoin="round" stroke-width="7.000000"
	d="
M566.500000,602.000000 
	C565.000000,605.500000 563.389587,608.957397 562.019104,612.507385 
	C555.976501,628.158569 543.470947,637.314453 529.496521,644.993713 
	C515.092041,652.909302 499.822998,659.028870 483.945557,662.768860 
	C464.066528,667.451477 445.449127,663.367432 432.521271,642.486816 
	C426.894470,633.398621 421.502991,624.164917 415.996735,615.001953 
	C415.186981,613.654480 414.454163,612.237061 413.480896,611.015198 
	C405.548004,601.056274 396.760101,603.072937 390.452393,611.966248 
	C384.238007,620.728088 379.505127,630.337158 374.038727,639.523071 
	C366.602356,652.019287 356.820679,661.429810 341.987366,663.924866 
	C331.696564,665.655884 321.747101,662.979797 312.013031,659.958008 
	C295.443390,654.814392 279.512512,648.232849 264.980133,638.529724 
	C253.366913,630.775757 245.581116,620.499939 241.348282,607.047729 
	C238.140457,596.853210 237.266052,586.420227 236.053482,575.993774 
	C234.311386,561.014038 236.957581,546.299255 238.757080,531.470520 
	C239.901733,522.038025 243.677673,514.246887 249.076797,507.057678 
	C256.430023,497.266541 267.135986,492.349548 278.516846,489.058228 
	C299.782471,482.908234 321.589752,479.239716 343.518372,476.655853 
	C356.593872,475.115112 369.812317,474.567963 382.989838,473.820892 
	C396.369202,473.062347 409.669891,473.830841 422.998993,474.058624 
	C434.197174,474.250000 445.361572,475.881958 456.508575,476.193115 
	C465.075073,476.432251 473.142761,478.675873 481.485992,479.623444 
	C489.716827,480.558228 497.830841,482.513824 506.000519,483.997101 
	C521.873901,486.878998 537.296997,491.264038 550.894165,500.161774 
	C555.512634,503.184052 557.916077,508.795013 561.065735,513.455566 
	C567.356201,522.763428 567.543884,533.566162 568.914185,544.011230 
	C571.239624,561.738159 570.126587,579.435730 566.893127,596.980286 
	C566.589417,598.628052 566.581909,600.000000 567.000000,601.500000 
"/>
<path fill="none" opacity="1.000000" stroke="#000000" stroke-linecap="round" stroke-linejoin="round" stroke-width="8.000000"
	d="
M502.000000,770.000000 
	C418.335236,771.119629 334.666351,770.186523 251.000244,770.555420 
	C247.831650,770.569336 244.666672,769.240845 241.500000,770.500000 
"/>
<path fill="none" opacity="1.000000" stroke="#000000" stroke-linecap="round" stroke-linejoin="round" stroke-width="7.000000"
	d="
M799.500000,260.500000 
	C799.945740,294.882202 797.924316,329.095428 791.966614,362.994141 
	C786.602905,393.513489 778.284241,423.159302 765.572510,451.532471 
	C759.862610,464.277222 753.714661,476.770325 747.000000,489.000000 
"/>
<path fill="none" opacity="1.000000" stroke="#000000" stroke-linecap="round" stroke-linejoin="round" stroke-width="7.000000"
	d="
M463.500000,475.000000 
	C463.317047,468.485443 460.414917,462.506805 459.926361,456.005524 
	C459.152313,445.705505 460.736572,435.612915 462.055908,425.507294 
	C463.773438,412.351624 465.194153,399.075165 462.834198,386.029999 
	C458.647125,362.885132 444.731598,347.136780 422.974670,338.564301 
	C408.051117,332.684235 392.127747,330.623962 376.498077,327.509583 
	C371.176788,326.449219 365.687317,325.963409 360.549133,324.344147 
	C356.856873,323.180542 353.783997,323.846436 350.500000,325.000000 
"/>
<path fill="none" opacity="1.000000" stroke="#000000" stroke-linecap="round" stroke-linejoin="round" stroke-width="7.000000"
	d="
M535.500000,391.500000 
	C518.017883,393.864746 510.010345,401.726135 505.897003,419.476135 
	C504.116058,427.161438 503.233215,435.155457 504.826141,442.428558 
	C507.966705,456.768005 517.101257,462.404785 532.472717,460.300751 
	C549.066895,458.029327 562.756470,446.055389 566.749695,429.937988 
	C571.255188,411.752899 559.013306,394.400604 539.500366,391.997101 
	C538.330872,391.853027 537.166687,391.666656 536.000000,391.500000 
"/>
<path fill="none" opacity="1.000000" stroke="#000000" stroke-linecap="round" stroke-linejoin="round" stroke-width="7.000000"
	d="
M730.500000,754.500000 
	C732.887024,754.542297 735.182190,753.989624 737.518921,753.619751 
	C740.007019,753.225952 742.824463,752.908997 744.997925,755.002136 
	C747.525574,757.436401 750.996338,757.036804 754.016602,757.944763 
	C760.063660,759.762573 765.806824,761.749451 770.072327,766.940552 
	C773.632141,771.272827 774.423767,776.076416 772.861755,780.955750 
	C771.302979,785.824463 766.748840,787.855591 761.990173,788.416870 
	C756.198120,789.099976 750.335815,789.389343 744.499512,789.454651 
	C731.501099,789.600037 718.497131,789.671936 705.500793,789.453186 
	C691.602783,789.219360 677.749756,787.955444 664.017944,785.881226 
	C658.040833,784.978455 652.883972,786.851196 647.495117,788.483887 
	C643.417297,789.719177 639.674622,792.706482 635.000000,791.000000 
"/>
<path fill="none" opacity="1.000000" stroke="#000000" stroke-linecap="round" stroke-linejoin="round" stroke-width="7.000000"
	d="
M729.000000,542.500000 
	C727.119019,539.588989 728.137085,536.143188 727.125549,532.960083 
	C723.348267,521.073425 709.623047,517.013550 700.113464,524.641418 
	C689.453003,533.192505 679.643799,542.808167 669.506592,552.007263 
	C659.809448,560.807007 650.190308,569.692810 640.486267,578.484863 
	C637.358276,581.318970 636.513062,583.780518 637.733765,588.567871 
	C644.289307,614.276855 655.606262,638.293823 663.500488,663.499817 
	C668.062744,678.066772 670.497375,692.769592 667.035706,708.008118 
	C664.817383,717.773499 660.200012,726.164734 653.500000,733.500000 
"/>
<path fill="none" opacity="1.000000" stroke="#000000" stroke-linecap="round" stroke-linejoin="round" stroke-width="7.000000"
	d="
M503.000000,699.000000 
	C521.000000,720.500000 538.980652,742.016235 557.005920,763.494995 
	C572.357483,781.787903 587.427490,800.321777 603.498901,818.001038 
	C605.007202,819.660095 606.500000,821.333313 608.000000,823.000000 
"/>
<path fill="none" opacity="1.000000" stroke="#000000" stroke-linecap="round" stroke-linejoin="round" stroke-width="7.000000"
	d="
M785.000000,699.000000 
	C795.166687,695.500000 805.398804,692.173523 815.453735,688.377380 
	C817.953186,687.433716 820.532654,686.836487 823.036621,686.129761 
	C828.136414,684.690369 835.249939,690.315613 838.034790,696.985474 
	C842.000854,706.484314 836.855835,715.223999 826.498413,719.496216 
	C806.254639,727.846619 785.497009,734.825378 764.995239,742.487183 
	C759.860535,744.406067 754.639404,746.094421 749.511047,748.029297 
	C746.779053,749.060059 744.259766,750.530334 742.500000,753.000000 
"/>
<path fill="none" opacity="1.000000" stroke="#000000" stroke-linecap="round" stroke-linejoin="round" stroke-width="7.000000"
	d="
M636.000000,584.500000 
	C629.895630,586.730713 626.271606,592.104370 621.543945,596.052612 
	C604.198181,610.538635 593.322815,630.099731 581.069885,648.546387 
	C578.948914,651.739441 575.377502,652.795166 572.960266,655.463989 
	C569.156006,659.664124 563.838745,662.256531 560.482605,666.987610 
	C559.542480,668.312805 557.745789,667.972229 556.543823,668.585815 
	C539.812439,677.125732 522.866943,685.319214 506.658051,694.771057 
	C500.765991,698.206848 494.754120,702.756348 492.348602,710.452698 
	C489.995972,717.979797 493.505341,723.411987 497.589478,728.427124 
	C511.858459,745.948608 526.472839,763.189514 541.010437,780.491272 
	C549.453247,790.539307 557.963013,800.531982 566.541687,810.463989 
	C567.766541,811.882019 567.395935,813.534668 568.000000,815.000000 
"/>
<path fill="none" opacity="1.000000" stroke="#000000" stroke-linecap="round" stroke-linejoin="round" stroke-width="8.000000"
	d="
M239.000000,523.000000 
	C231.683472,522.671570 224.752182,524.827271 218.070053,527.197510 
	C213.952988,528.657837 211.627029,532.994507 211.575623,537.500854 
	C211.385559,554.165405 211.332504,570.836060 211.606262,587.498230 
	C211.684235,592.243652 214.232193,596.113525 218.999130,598.002197 
	C225.265076,600.484802 231.622742,602.505798 238.500000,602.000000 
"/>
<path fill="none" opacity="1.000000" stroke="#000000" stroke-linecap="round" stroke-linejoin="round" stroke-width="8.000000"
	d="
M567.000000,602.000000 
	C574.276428,602.518677 581.005188,600.182739 587.444458,597.372803 
	C591.771423,595.484619 593.518555,591.299316 593.510498,586.500000 
	C593.483032,570.166687 593.484680,553.833313 593.509888,537.500000 
	C593.516968,532.923462 591.127197,529.305664 587.425537,527.668396 
	C581.200806,524.915222 574.573853,522.839783 567.500000,524.000000 
"/>
<path fill="none" opacity="1.000000" stroke="#000000" stroke-linecap="round" stroke-linejoin="round" stroke-width="7.000000"
	d="
M254.000000,631.500000 
	C241.278336,645.534302 229.587692,660.433289 217.462296,674.968567 
	C212.224152,681.247681 206.381851,687.075439 202.056839,694.035339 
	C194.879074,705.585876 200.654419,718.347839 211.467926,721.606445 
	C215.060959,722.689148 219.118637,723.056519 222.000000,726.000000 
"/>
<path fill="none" opacity="1.000000" stroke="#000000" stroke-linecap="round" stroke-linejoin="round" stroke-width="7.000000"
	d="
M560.500000,668.000000 
	C575.333313,685.333313 590.167053,702.666321 604.999878,720.000061 
	C618.833740,736.166321 632.666687,752.333313 646.500000,768.500000 
"/>
<path fill="none" opacity="1.000000" stroke="#000000" stroke-linecap="round" stroke-linejoin="round" stroke-width="7.000000"
	d="
M581.000000,650.500000 
	C608.842163,684.086243 637.568542,716.917175 666.000000,750.000000 
"/>
<path fill="none" opacity="1.000000" stroke="#000000" stroke-linecap="round" stroke-linejoin="round" stroke-width="8.000000"
	d="
M709.500000,614.500000 
	C710.633423,614.566895 711.565552,614.456482 712.532227,613.533752 
	C732.656189,594.322327 753.016296,575.352905 772.857300,555.854797 
	C777.222473,551.565063 781.866089,549.079407 787.509033,548.049622 
	C795.218994,546.642456 802.083801,549.978271 805.963135,557.020325 
	C810.059570,564.456604 808.985596,571.051025 804.564819,577.544128 
	C796.807678,588.937622 784.804016,595.765320 775.386963,605.389404 
	C763.522522,617.514832 750.822632,628.822083 738.512268,640.512939 
	C736.794800,642.144043 735.106750,643.622864 732.500000,643.000000 
"/>
<path fill="none" opacity="1.000000" stroke="#000000" stroke-linecap="round" stroke-linejoin="round" stroke-width="8.000000"
	d="
M777.000061,551.000000 
	C776.500061,547.166687 776.636292,543.110474 775.385864,539.539978 
	C770.862671,526.624634 756.681091,520.869080 744.532776,530.541138 
	C741.315979,533.102234 738.842163,536.695496 735.435303,538.900024 
	C725.539856,545.303162 718.712280,554.888550 710.053711,562.560608 
	C701.145142,570.454224 692.649902,578.815735 684.021790,587.022888 
	C682.978333,588.015442 682.030945,588.849915 680.500000,588.500000 
"/>
<path fill="none" opacity="1.000000" stroke="#000000" stroke-linecap="round" stroke-linejoin="round" stroke-width="8.000000"
	d="
M342.000000,528.000000 
	C324.500000,546.000000 306.928497,563.931885 289.611145,582.105896 
	C287.887756,583.914551 286.403290,583.924866 284.500000,584.000000 
"/>
<path fill="none" opacity="1.000000" stroke="#000000" stroke-linecap="round" stroke-linejoin="round" stroke-width="7.000000"
	d="
M815.000000,618.500000 
	C819.327576,622.847229 823.733887,627.244263 823.455872,633.998169 
	C823.174133,640.842896 820.790527,648.416626 812.551514,651.155029 
	C800.848694,655.044678 789.508789,660.022705 777.988770,664.470825 
	C776.571350,665.018066 774.882812,665.703979 773.520325,665.406799 
	C767.677612,664.132568 763.541504,667.348328 759.544495,670.555481 
	C754.854431,674.318604 750.426636,678.422119 746.045166,682.547974 
	C744.748840,683.768738 744.224121,685.656311 744.000000,687.500000 
"/>
<path fill="none" opacity="1.000000" stroke="#000000" stroke-linecap="round" stroke-linejoin="round" stroke-width="8.000000"
	d="
M799.500000,586.000000 
	C800.989319,586.690735 802.220886,587.779419 803.992798,588.047668 
	C811.773438,589.225220 816.275635,594.270569 817.889526,601.524597 
	C819.525208,608.876160 817.331726,615.340881 811.526489,620.529663 
	C804.580994,626.737488 797.772461,633.102539 791.017334,639.518250 
	C784.437500,645.767517 778.171814,652.359497 771.401855,658.389832 
	C769.191284,660.359009 768.516968,662.483521 768.000000,665.000000 
"/>
<path fill="none" opacity="1.000000" stroke="#000000" stroke-linecap="round" stroke-linejoin="round" stroke-width="7.000000"
	d="
M820.500000,647.000000 
	C822.500000,647.333374 824.492371,647.892822 826.501343,647.960754 
	C835.151245,648.253235 841.361755,651.960999 842.887207,659.024353 
	C844.641296,667.146790 844.068848,674.087280 836.059753,679.587036 
	C833.298584,681.483215 829.547668,682.234314 828.000000,685.750000 
"/>
<path fill="none" opacity="1.000000" stroke="#000000" stroke-linecap="round" stroke-linejoin="round" stroke-width="7.000000"
	d="
M757.500000,311.500000 
	C759.071045,311.541046 759.993408,310.887329 761.072998,309.559357 
	C771.451111,296.793610 781.920837,284.099854 792.534546,271.529175 
	C797.576599,265.557587 802.805908,266.985901 805.943909,271.043365 
	C816.425171,284.595673 826.652100,298.344421 837.033752,311.974274 
	C837.703003,312.852905 837.331787,313.666992 837.500000,314.500000 
"/>
<path fill="none" opacity="1.000000" stroke="#000000" stroke-linecap="round" stroke-linejoin="round" stroke-width="8.000000"
	d="
M310.000000,529.000000 
	C302.731903,534.731934 297.094147,542.094727 290.607971,548.607544 
	C289.060333,550.161499 287.192291,551.556396 286.000000,553.500000 
"/>
<path fill="none" opacity="1.000000" stroke="#000000" stroke-linecap="round" stroke-linejoin="round" stroke-width="7.000000"
	d="
M384.500000,495.000031 
	C375.666656,495.666687 366.825958,496.248657 358.001495,497.017120 
	C337.945374,498.763641 318.131409,502.024261 298.487091,506.442657 
	C291.352478,508.047363 284.240967,509.667389 277.515717,512.536865 
	C268.451691,516.404236 262.969147,522.798767 260.810303,532.959717 
	C256.654083,552.521484 256.629791,571.861877 259.869293,591.521545 
	C262.443756,607.145447 270.465637,618.024475 284.478790,625.042358 
	C299.944763,632.787659 315.430695,640.227356 332.992615,642.070435 
	C340.769806,642.886597 346.323547,639.435852 350.964050,633.969482 
	C357.463196,626.313721 361.439728,617.065369 366.591919,608.555664 
	C370.952484,601.353394 375.834839,594.527771 382.422760,588.909424 
	C393.324097,579.612366 412.902557,579.435425 424.530579,590.969177 
	C432.173126,598.549744 437.222870,607.831604 442.503540,616.997986 
	C446.344940,623.665894 449.799286,630.546570 455.452789,636.048523 
	C460.744812,641.198669 466.786896,643.233826 473.999847,641.999023 
	C494.381714,638.510132 512.835144,630.237427 529.967041,618.949951 
	C541.315308,611.473145 544.271912,599.293945 546.456726,586.992310 
	C549.416565,570.327026 548.488342,553.662354 546.041260,536.993958 
	C543.861023,522.143799 535.292725,513.787903 521.030212,509.889465 
	C505.526459,505.651703 489.810516,502.554626 473.986969,500.083344 
	C444.514313,495.480347 414.789185,494.485718 385.000000,495.000000 
"/>
</svg>