<svg version="1.1" id="Layer_1" xmlns="http://www.w3.org/2000/svg" xmlns:xlink="http://www.w3.org/1999/xlink" x="0px" y="0px"
	 width="100%" viewBox="0 0 2048 2048" enable-background="new 0 0 2048 2048" xml:space="preserve">
<path fill="none" opacity="1.000000" stroke="#000000" stroke-linecap="round" stroke-linejoin="round" stroke-width="8.000000"
	d="
M246.000000,1248.500000 
	C245.725159,1256.052124 249.339325,1262.610840 251.570587,1269.477051 
	C260.044983,1295.555542 271.094574,1320.631714 283.660248,1344.917114 
	C300.767639,1377.979980 320.985352,1409.097778 343.829102,1438.632202 
	C367.645569,1469.424072 394.475098,1497.254517 423.078186,1523.414551 
	C459.303253,1556.545288 499.261536,1584.778198 541.021484,1610.465088 
	C567.538696,1626.776001 594.725830,1641.918701 622.496216,1656.007446 
	C663.898254,1677.011475 706.178528,1696.116577 749.030945,1713.925659 
	C782.953674,1728.023682 816.973572,1741.878662 851.439392,1754.663452 
	C879.423523,1765.043945 907.309082,1775.685547 935.503235,1785.490723 
	C958.154480,1793.368408 980.788147,1801.300659 1003.511658,1808.965454 
	C1030.628906,1818.112183 1057.831055,1827.006714 1085.006226,1835.981079 
	C1086.458008,1836.460449 1088.000000,1836.666748 1089.500000,1837.000000 
"/>
<path fill="none" opacity="1.000000" stroke="#000000" stroke-linecap="round" stroke-linejoin="round" stroke-width="8.000000"
	d="
M914.000000,953.000000 
	C907.409546,957.966858 900.189392,956.829224 893.008606,954.966919 
	C883.119446,952.402161 875.020508,946.621704 867.522461,939.974670 
	C860.737061,933.959290 854.021912,927.873779 845.965515,923.564392 
	C845.223083,923.167236 844.622009,922.503479 843.505066,922.426453 
	C832.980408,921.701172 822.593384,917.600525 811.929565,922.857117 
	C805.828918,925.864197 799.053345,927.711731 792.002014,926.980591 
	C784.011108,926.152100 777.853088,922.243835 773.502686,915.498291 
	C770.821472,911.341003 767.889160,907.314514 765.570129,902.962646 
	C762.662964,897.506836 758.418396,893.498535 753.506226,889.991333 
	C745.796143,884.486328 737.387268,885.799805 729.012329,887.558838 
	C725.575867,888.280579 725.390503,891.436279 726.085266,893.976685 
	C728.483643,902.744934 726.606445,910.966919 722.388855,918.437256 
	C714.851074,931.788452 702.635559,939.050964 687.995483,942.480774 
	C674.515076,945.638916 663.062988,940.956421 652.491821,933.010864 
	C647.828674,929.505981 642.823486,926.996094 637.057068,925.305359 
	C626.425598,922.188232 617.501770,924.907166 609.571960,931.585449 
	C603.604431,936.611023 598.950806,942.827026 595.421204,949.960999 
	C590.397766,960.114319 585.472839,970.414734 579.328613,979.888855 
	C572.543640,990.351013 563.728943,999.495850 551.453369,1003.351440 
	C534.950806,1008.534607 521.613037,1002.377930 510.508850,987.493408 
	C503.724304,978.399109 499.007660,967.971680 492.047150,958.963562 
	C486.884766,952.282654 480.074585,948.459229 471.982300,947.684998 
	C466.854858,947.194397 461.623749,949.297791 457.059387,951.616882 
	C445.261932,957.611145 435.000153,954.976624 425.524536,946.970947 
	C415.527496,938.524780 405.891418,929.693481 394.537262,922.937378 
	C378.706787,913.517578 361.900909,906.728943 344.005035,902.478882 
	C331.663757,899.547974 319.109924,898.164673 306.499512,898.108582 
	C290.215637,898.036133 274.259125,900.662231 258.477112,904.915039 
	C223.657516,914.297852 193.728607,932.080200 167.499832,956.499817 
	C165.196304,958.644409 163.414322,961.718079 159.500000,961.000000 
"/>
<path fill="none" opacity="1.000000" stroke="#000000" stroke-linecap="round" stroke-linejoin="round" stroke-width="8.000000"
	d="
M1203.500000,1118.000000 
	C1210.638794,1124.088135 1218.965942,1128.345581 1227.036987,1132.935059 
	C1240.066040,1140.343506 1253.243774,1147.504272 1266.520630,1154.460571 
	C1287.132812,1165.260254 1308.236572,1175.045898 1329.482544,1184.539062 
	C1345.604370,1191.742310 1362.009521,1198.205933 1378.480469,1204.550781 
	C1404.417847,1214.542358 1430.543579,1224.028564 1457.041016,1232.369873 
	C1479.174683,1239.337524 1501.598999,1245.419678 1524.022339,1251.416260 
	C1540.574951,1255.842651 1557.248291,1259.912109 1574.025635,1263.375732 
	C1588.685791,1266.402344 1603.290894,1269.847900 1618.031982,1272.308350 
	C1636.675781,1275.420166 1655.216431,1279.155518 1673.975586,1281.681030 
	C1683.830933,1283.007812 1693.706299,1284.629150 1703.544067,1286.229370 
	C1709.757812,1287.240234 1716.180298,1287.841309 1722.481079,1288.648071 
	C1732.155151,1289.887085 1741.862305,1291.009277 1751.531738,1292.253906 
	C1759.611450,1293.293701 1767.844482,1293.722778 1775.996948,1294.530884 
	C1786.493530,1295.571289 1797.043823,1295.931274 1807.514526,1297.395752 
	C1812.281372,1298.062500 1817.204834,1298.136597 1822.006714,1298.287231 
	C1830.349487,1298.548950 1838.621826,1300.155151 1847.004028,1299.557007 
	C1848.141113,1299.475830 1849.333374,1300.166626 1850.500000,1300.500000 
"/>
<path fill="none" opacity="1.000000" stroke="#000000" stroke-linecap="round" stroke-linejoin="round" stroke-width="8.000000"
	d="
M1690.500000,1625.000000 
	C1687.067505,1629.548828 1681.612915,1628.875610 1676.972900,1629.873779 
	C1669.056641,1631.576416 1660.987305,1632.816528 1652.972290,1633.766602 
	C1645.850586,1634.610962 1638.702271,1635.611694 1631.505737,1636.087158 
	C1621.649292,1636.738403 1611.846313,1638.166992 1601.994751,1638.933228 
	C1596.672241,1639.347046 1591.302368,1639.650757 1585.994263,1639.828125 
	C1558.009277,1640.763184 1530.003296,1641.646118 1502.003174,1640.881958 
	C1492.339478,1640.618286 1482.651123,1640.417358 1473.008423,1639.855713 
	C1462.508179,1639.244263 1452.010132,1638.510376 1441.509521,1637.848633 
	C1429.835205,1637.112915 1418.181763,1635.845093 1406.508545,1634.895020 
	C1391.307007,1633.657837 1376.093750,1632.148193 1361.020386,1629.865723 
	C1345.685791,1627.543823 1330.257324,1625.913574 1314.979980,1623.109253 
	C1299.570801,1620.280762 1283.925049,1618.739868 1268.518921,1615.897461 
	C1249.140259,1612.322266 1229.718628,1608.948364 1210.484375,1604.568481 
	C1190.970459,1600.124878 1171.425415,1595.846436 1151.962280,1591.156616 
	C1133.917603,1586.808838 1115.895630,1582.439819 1097.981445,1577.568359 
	C1078.071777,1572.154541 1058.018433,1567.269775 1038.496216,1560.511108 
	C1037.539185,1560.179688 1035.856934,1560.014404 1035.572998,1560.151367 
	C1029.421265,1563.119873 1025.769043,1558.682739 1022.055847,1555.436157 
	C1013.711060,1548.139893 1005.844849,1540.293335 997.450989,1533.056885 
	C988.650208,1525.469482 979.241577,1518.640747 967.979858,1515.063354 
	C964.467041,1513.947388 960.755188,1513.409668 956.993530,1514.477173 
	C951.609680,1516.005005 949.658142,1519.885498 952.559875,1524.462036 
	C955.626099,1529.297974 959.223450,1533.794189 962.477112,1538.515747 
	C964.211670,1541.032959 966.785583,1543.547729 964.937744,1546.966309 
	C963.657410,1549.335083 957.556763,1550.166626 953.994690,1549.016357 
	C939.909790,1544.467773 929.060974,1535.461914 919.468811,1524.527344 
	C907.760620,1511.180786 899.732605,1495.342896 889.577271,1480.945557 
	C883.149048,1471.832031 876.007019,1463.963013 865.004883,1460.484619 
	C858.847534,1458.537842 853.113892,1459.619141 850.000000,1463.500000 
	C847.769470,1466.279907 847.808105,1474.575195 850.608459,1478.421021 
	C851.815063,1480.078003 852.637512,1481.969849 853.999023,1483.500854 
	C855.517578,1485.208130 855.372375,1487.207520 854.441162,1488.968872 
	C853.420776,1490.899048 851.416504,1490.593018 849.498901,1490.539307 
	C842.488770,1490.343140 836.668701,1487.011230 831.024414,1483.461182 
	C813.698120,1472.563721 802.596252,1456.188477 792.513062,1438.992310 
	C782.493042,1421.903931 773.319702,1404.338135 762.096375,1387.934082 
	C752.180115,1373.440308 739.238037,1362.694946 723.968628,1354.558960 
	C716.396606,1350.524170 708.223755,1347.769653 699.518616,1349.589111 
	C690.074219,1351.563232 686.732544,1356.444092 691.617676,1365.436035 
	C693.534119,1368.963623 695.750000,1372.370972 697.448730,1376.023804 
	C698.394775,1378.057983 699.401672,1380.264771 697.522827,1382.519043 
	C695.585083,1384.843872 692.898621,1385.005981 690.526306,1384.397339 
	C685.456360,1383.096680 680.446960,1381.297241 676.029663,1378.453857 
	C662.779053,1369.924194 652.865601,1357.922119 644.773376,1344.831055 
	C639.342896,1336.045776 632.940186,1327.766479 628.887024,1318.047119 
	C624.904846,1308.497803 620.439270,1299.085571 615.358765,1290.079712 
	C611.409424,1283.078857 606.710388,1276.321045 599.489685,1272.017334 
	C597.893372,1271.066040 596.199280,1269.722656 594.492981,1269.631348 
	C591.269653,1269.458984 587.708374,1268.485107 584.987183,1271.488403 
	C582.371460,1274.375366 583.806824,1277.124146 584.976990,1280.009277 
	C587.058960,1285.142700 589.133545,1290.287109 590.946716,1295.518433 
	C591.934631,1298.368652 592.695801,1302.054810 589.881165,1303.809448 
	C587.223267,1305.466064 583.988586,1304.784546 580.925781,1302.604248 
	C573.494812,1297.314697 570.788330,1289.227051 567.551697,1281.478394 
	C562.122864,1268.481812 558.379456,1254.827026 552.480286,1242.009033 
	C546.385498,1228.766235 539.092712,1216.322754 528.007996,1206.490967 
	C521.932678,1201.102661 515.207153,1197.267944 507.017029,1195.898193 
	C502.040955,1195.066040 497.840607,1196.628418 494.084045,1199.126343 
	C490.985565,1201.186646 489.983368,1204.394409 491.387573,1208.538086 
	C494.184387,1216.791138 499.017151,1224.079834 501.664093,1232.448120 
	C505.058624,1243.179810 502.983276,1250.791504 496.930969,1254.383667 
	C490.824951,1258.007935 484.216217,1256.408936 478.012970,1253.967041 
	C465.102783,1248.884888 455.740906,1239.223755 447.050812,1228.957031 
	C434.417542,1214.031372 425.598694,1196.485474 414.464355,1180.524902 
	C403.422791,1164.697266 389.553894,1152.317017 370.475250,1147.090332 
	C365.325500,1145.679565 360.048035,1144.545410 354.472412,1146.417847 
	C341.870453,1150.649902 332.599915,1143.796021 323.476196,1136.529907 
	C316.187653,1130.725342 308.698730,1125.347656 299.013702,1123.907715 
	C292.691132,1122.967773 286.716248,1123.334595 281.545593,1127.063232 
	C272.022675,1133.930298 274.935333,1141.654419 280.047455,1148.464355 
	C283.145569,1152.591553 287.785950,1154.636475 292.488831,1156.527710 
	C304.188965,1161.233154 316.372314,1164.536743 328.039642,1169.405029 
	C358.990570,1182.320068 382.126678,1203.451294 396.894531,1233.551758 
	C398.620514,1237.069946 400.615143,1240.724976 400.540771,1245.000732 
	C400.449127,1250.264771 396.578064,1253.756348 391.513794,1252.446655 
	C386.057159,1251.035522 381.450409,1247.893799 376.982422,1244.523315 
	C371.624237,1240.481323 366.160522,1236.451050 359.000397,1236.534180 
	C353.827179,1236.594116 349.012115,1237.918945 346.551422,1243.024780 
	C344.015045,1248.287598 345.871460,1253.169312 349.045410,1257.466431 
	C353.501099,1263.498657 360.105011,1266.203735 366.979980,1268.558472 
	C374.329742,1271.075562 381.261444,1274.256470 385.563873,1281.461914 
	C388.993774,1287.205933 390.020691,1293.219727 386.846710,1298.914551 
	C383.594788,1304.749268 377.999420,1307.476562 371.001495,1307.590820 
	C363.392517,1307.714966 356.311646,1305.321899 348.984161,1304.094604 
	C340.715057,1302.709839 332.448242,1302.182373 325.940674,1309.446899 
	C323.403656,1312.279053 322.717377,1315.573975 322.000000,1319.000000 
"/>
<path fill="none" opacity="1.000000" stroke="#000000" stroke-linecap="round" stroke-linejoin="round" stroke-width="8.000000"
	d="
M1310.000000,1647.000000 
	C1311.205322,1650.225952 1313.422363,1652.310181 1316.458496,1654.071533 
	C1335.361938,1665.035645 1355.610229,1672.960693 1376.029541,1680.419067 
	C1391.421509,1686.041260 1406.916016,1691.399048 1422.448975,1696.650879 
	C1449.854736,1705.916870 1477.737549,1713.505859 1505.539795,1721.359253 
	C1519.761963,1725.376709 1534.169556,1728.848145 1548.535400,1732.354980 
	C1566.053223,1736.631348 1583.826416,1739.867432 1601.502075,1743.490112 
	C1617.992554,1746.869873 1634.460205,1750.382935 1651.012817,1753.430054 
	C1663.781738,1755.780518 1676.674561,1757.450439 1689.497437,1759.515991 
	C1699.343750,1761.102173 1709.142212,1762.999268 1719.007446,1764.449341 
	C1727.471558,1765.693481 1736.011841,1766.409912 1744.496826,1767.524048 
	C1753.844116,1768.751587 1763.149170,1770.308838 1772.505615,1771.454468 
	C1779.811035,1772.348877 1787.201416,1772.577148 1794.490845,1773.567017 
	C1802.978149,1774.719604 1811.526245,1775.384155 1820.026001,1776.243042 
	C1826.115234,1776.858398 1832.333252,1777.917603 1838.489502,1777.379517 
	C1841.578735,1777.109741 1844.435913,1779.974487 1847.500000,1777.750000 
"/>
<path fill="none" opacity="1.000000" stroke="#000000" stroke-linecap="round" stroke-linejoin="round" stroke-width="8.000000"
	d="
M534.000000,1454.000000 
	C543.471802,1457.861572 551.096069,1463.701538 553.946899,1474.014648 
	C556.572449,1483.512695 554.016602,1491.349365 541.500671,1491.542603 
	C538.496216,1491.588867 535.373413,1491.740234 532.525391,1492.585571 
	C525.868286,1494.561768 522.280457,1502.476685 525.063843,1509.474609 
	C529.521912,1520.683105 537.982300,1528.027588 549.007263,1532.482056 
	C566.415222,1539.515015 583.966614,1537.743408 601.495178,1532.982300 
	C612.187866,1530.078003 622.754089,1526.670288 633.520203,1524.083984 
	C646.835632,1520.885254 660.150452,1519.509521 673.027527,1526.448975 
	C682.370361,1531.483765 684.992676,1538.979004 680.000000,1548.000000 
	C672.073669,1562.321777 676.769775,1574.950562 691.966980,1581.575806 
	C702.228638,1586.049194 712.792419,1586.222534 723.493408,1584.944702 
	C742.412842,1582.685425 760.121033,1575.491333 778.488098,1570.951782 
	C791.015991,1567.855347 803.789978,1566.211426 816.472046,1567.733032 
	C830.188416,1569.378906 843.486145,1573.086670 853.558289,1583.945923 
	C859.966431,1590.854858 856.894897,1598.633545 849.524963,1600.593872 
	C844.393677,1601.958740 839.223328,1602.778320 834.003357,1603.523438 
	C831.376099,1603.898438 828.588501,1603.798218 826.485718,1605.986328 
	C822.666687,1609.961060 822.830017,1613.680420 827.521912,1618.980591 
	C832.992065,1625.160034 840.226074,1628.636719 848.022888,1630.398804 
	C864.838501,1634.199097 881.763123,1634.944946 899.023682,1632.680420 
	C918.132874,1630.173218 936.943787,1626.698120 955.532410,1621.618530 
	C964.175720,1619.256714 973.136780,1617.977295 982.012085,1616.576416 
	C986.751221,1615.828613 991.547241,1616.810425 995.971741,1618.571045 
	C1000.894714,1620.530029 1001.748474,1623.669556 998.980957,1627.987793 
	C997.759949,1629.893188 996.382507,1631.704956 994.990295,1633.492432 
	C991.367859,1638.143799 990.386780,1642.939941 992.500061,1646.000000 
	C995.149902,1649.837036 1000.231323,1651.245483 1006.004578,1650.021729 
	C1017.578125,1647.568359 1028.100952,1642.279297 1039.002563,1638.006592 
	C1048.647461,1634.226196 1058.543701,1631.514648 1069.000000,1631.512817 
	C1079.924927,1631.510864 1090.205078,1634.409180 1099.978638,1639.045044 
	C1107.585449,1642.653198 1115.008301,1646.650513 1122.497681,1650.504395 
	C1130.504395,1654.624634 1139.191040,1656.656250 1147.992188,1656.304077 
	C1157.435425,1655.926392 1166.807861,1653.895142 1175.992310,1651.471069 
	C1192.019653,1647.241089 1207.991577,1642.801636 1224.008423,1638.531372 
	C1226.628174,1637.832886 1229.266846,1637.519775 1231.045166,1635.032227 
	C1232.086914,1633.574829 1233.945435,1634.150635 1235.497803,1633.979858 
	C1246.431885,1632.776733 1256.845215,1636.283569 1267.485474,1637.615601 
	C1277.885376,1638.917480 1288.187378,1641.060059 1298.487793,1643.062744 
	C1301.722778,1643.691650 1305.081421,1644.187988 1308.015259,1645.974854 
	C1308.575684,1646.316162 1309.413818,1646.619141 1309.988037,1646.457397 
	C1319.914185,1643.661377 1329.340942,1647.788818 1338.994019,1648.573975 
	C1360.679810,1650.337769 1382.324341,1652.605591 1404.002563,1654.470581 
	C1426.125977,1656.373901 1448.313232,1657.163818 1470.487427,1658.255127 
	C1488.015625,1659.117798 1505.524170,1659.261108 1522.994751,1658.800659 
	C1544.345947,1658.237793 1565.702637,1657.144775 1587.012573,1655.133789 
	C1607.270630,1653.222046 1627.471191,1650.990112 1647.485840,1647.420410 
	C1666.653442,1644.002197 1685.653320,1639.751099 1704.017944,1633.049194 
	C1707.164673,1631.900879 1709.739624,1629.701782 1710.276978,1626.956299 
	C1711.031860,1623.099854 1713.414551,1623.299072 1716.000000,1623.000000 
"/>
<path fill="none" opacity="1.000000" stroke="#000000" stroke-linecap="round" stroke-linejoin="round" stroke-width="8.000000"
	d="
M1230.000000,1449.500000 
	C1234.086792,1453.606812 1238.236572,1456.696777 1244.423340,1458.296509 
	C1265.339966,1463.705200 1285.498047,1471.710205 1306.075684,1478.262207 
	C1326.623413,1484.804810 1347.103516,1491.575439 1367.438232,1498.676758 
	C1405.009888,1511.797729 1442.716309,1524.544312 1480.037720,1538.398315 
	C1509.683716,1549.403076 1539.868286,1558.967163 1569.440430,1570.157593 
	C1596.280273,1580.313965 1623.623779,1588.980347 1650.536743,1598.900513 
	C1665.164307,1604.292114 1680.140503,1608.749512 1695.018555,1613.441284 
	C1698.712891,1614.606445 1701.677612,1616.494873 1703.995117,1619.503784 
	C1705.799316,1621.846069 1709.121948,1621.791870 1711.000000,1624.000000 
"/>
<path fill="none" opacity="1.000000" stroke="#000000" stroke-linecap="round" stroke-linejoin="round" stroke-width="6.000000"
	d="
M1690.500000,1624.000000 
	C1689.137695,1622.793457 1688.247803,1620.942017 1685.999756,1620.989014 
	C1677.436157,1621.167969 1668.996582,1619.671753 1660.494385,1619.081665 
	C1649.439697,1618.314331 1638.499146,1616.673828 1627.497925,1615.520142 
	C1608.208252,1613.496948 1589.095947,1610.249756 1570.018433,1606.895264 
	C1554.799194,1604.218994 1539.617920,1601.242065 1524.449707,1598.255127 
	C1505.943848,1594.611084 1487.523315,1590.546021 1469.028198,1586.858887 
	C1453.225342,1583.708374 1437.642700,1579.428101 1422.006470,1575.474731 
	C1404.645142,1571.085205 1387.362305,1566.384644 1369.994019,1562.023682 
	C1331.946045,1552.469849 1294.352539,1541.262939 1256.508667,1530.968140 
	C1248.116211,1528.685303 1239.783325,1526.149658 1231.535278,1523.394531 
	C1229.476318,1522.706665 1227.546143,1522.556763 1225.500000,1522.500000 
"/>
<path fill="none" opacity="1.000000" stroke="#000000" stroke-linecap="round" stroke-linejoin="round" stroke-width="8.000000"
	d="
M1010.000000,603.000000 
	C999.473389,602.835632 989.026855,604.365906 979.063660,607.222046 
	C966.534241,610.813904 953.914001,612.730591 941.000916,613.514893 
	C908.928711,615.462708 880.314514,626.108093 855.983215,647.480896 
	C854.110535,649.125793 851.729187,650.247925 850.052551,652.048950 
	C845.620178,656.809875 839.358032,655.790161 833.976135,657.421326 
	C814.910645,663.199829 796.497681,670.686829 777.943848,677.854675 
	C769.272217,681.204651 759.941467,682.809082 751.013916,685.545410 
	C738.027527,689.525757 725.629395,695.093140 714.071350,702.117432 
	C698.936768,711.315247 683.819763,720.660645 670.510010,732.511230 
	C657.464294,744.126587 644.445068,755.773071 631.532288,767.535400 
	C627.474854,771.231262 623.909790,772.901794 617.894653,770.801758 
	C611.029297,768.405029 603.307495,768.798401 595.978455,767.635803 
	C579.699219,765.053345 563.996643,760.163147 548.032410,756.363831 
	C532.833862,752.746887 517.566711,750.112793 502.001495,748.979309 
	C483.226349,747.612244 464.519745,748.873840 446.026550,751.675293 
	C427.357605,754.503418 408.974792,758.936340 390.978363,764.935120 
	C361.455383,774.775818 332.946381,787.197021 303.929474,798.315979 
	C279.040375,807.853271 253.627274,816.066528 227.994308,823.480286 
	C212.667130,827.913391 197.521500,832.930176 183.070602,839.651794 
	C175.996368,842.942261 169.666656,847.833313 163.000000,852.000000 
"/>
<path fill="none" opacity="1.000000" stroke="#000000" stroke-linecap="round" stroke-linejoin="round" stroke-width="8.000000"
	d="
M205.500000,1427.500000 
	C206.556564,1427.627930 207.261765,1427.436890 208.123657,1428.928589 
	C222.864456,1454.437500 239.614609,1478.647339 257.659241,1501.876343 
	C268.230988,1515.485229 279.123871,1528.919434 290.945984,1541.550537 
	C301.098328,1552.397949 310.875488,1563.604370 321.517212,1573.982300 
	C353.462982,1605.136475 387.638275,1633.587402 423.928894,1659.599243 
	C452.931305,1680.387207 483.136963,1699.198975 514.029785,1716.948120 
	C534.396729,1728.649780 555.416443,1739.148193 576.501770,1749.496338 
	C582.323425,1752.353516 588.184937,1755.129883 593.991272,1758.017578 
	C596.377258,1759.204102 598.740173,1760.307617 601.500000,1760.000000 
"/>
<path fill="none" opacity="1.000000" stroke="#000000" stroke-linecap="round" stroke-linejoin="round" stroke-width="8.000000"
	d="
M1320.500000,1254.500000 
	C1320.013550,1256.255859 1321.501709,1256.481323 1322.506226,1256.987549 
	C1335.964844,1263.768433 1349.601562,1270.184937 1363.518188,1275.956177 
	C1380.441650,1282.974243 1397.226929,1290.479248 1414.565430,1296.305176 
	C1439.190308,1304.579468 1463.942261,1312.536133 1488.975830,1319.585815 
	C1509.691895,1325.419434 1530.639893,1330.291748 1551.532471,1335.366333 
	C1566.699707,1339.050537 1582.217529,1341.263916 1597.487427,1344.558105 
	C1617.865723,1348.954346 1638.518433,1351.730103 1659.017578,1355.401855 
	C1669.584106,1357.294434 1680.335327,1358.151611 1690.999512,1359.503540 
	C1706.667969,1361.489746 1722.314209,1363.670776 1738.007324,1365.434692 
	C1747.133545,1366.460449 1756.335815,1366.801880 1765.499390,1367.508423 
	C1775.835571,1368.305298 1786.163330,1369.210693 1796.501099,1369.985352 
	C1804.162109,1370.559570 1811.841064,1371.485962 1819.497803,1371.363892 
	C1827.221069,1371.240723 1834.809448,1372.717041 1842.500000,1372.500000 
"/>
<path fill="none" opacity="1.000000" stroke="#000000" stroke-linecap="round" stroke-linejoin="round" stroke-width="8.000000"
	d="
M1722.500000,434.500000 
	C1721.633789,418.191284 1717.573853,402.673065 1710.463623,388.017639 
	C1700.861694,368.226288 1686.953979,352.053375 1668.481445,340.028503 
	C1644.451904,324.386383 1618.117676,317.508453 1589.504028,320.537903 
	C1543.727295,325.384430 1511.206665,349.523468 1490.641724,390.071869 
	C1484.913818,401.365540 1481.912109,413.723328 1480.308960,426.475983 
	C1479.170288,435.533539 1478.721191,444.657928 1479.754883,453.470093 
	C1482.306641,475.224030 1489.226562,495.519440 1502.404419,513.569824 
	C1518.562866,535.702637 1539.852661,550.327637 1565.521240,558.936768 
	C1573.895996,561.745605 1582.659180,562.705017 1591.478760,563.690002 
	C1606.395386,565.355652 1620.838379,563.588806 1634.971802,559.404846 
	C1657.634399,552.695923 1676.946777,540.503784 1692.529419,522.525513 
	C1702.246948,511.313934 1709.948120,498.952209 1714.973755,484.990570 
	C1718.009521,476.556702 1720.123413,467.871857 1721.524658,459.003906 
	C1722.784790,451.028870 1723.531250,443.056854 1722.500000,435.000000 
"/>
<path fill="none" opacity="1.000000" stroke="#000000" stroke-linecap="round" stroke-linejoin="round" stroke-width="8.000000"
	d="
M1240.500000,820.500000 
	C1238.282837,828.181152 1238.467041,835.516968 1241.848511,843.067810 
	C1244.629761,849.278015 1245.908691,856.126526 1248.454590,862.518066 
	C1254.870361,878.625183 1261.038940,894.809998 1268.389160,910.551758 
	C1276.651978,928.248413 1282.213379,946.734253 1283.638550,966.489990 
	C1285.322510,989.831421 1281.796997,1012.020569 1271.435791,1032.968262 
	C1265.711792,1044.540771 1258.258423,1055.047363 1250.027832,1065.022949 
	C1235.289795,1082.885254 1220.100586,1100.374878 1203.361328,1116.354736 
	C1194.889893,1124.441772 1185.303589,1131.449585 1175.494263,1137.991333 
	C1166.261841,1144.148193 1158.074341,1151.327515 1150.851440,1159.874390 
	C1145.337158,1166.399536 1146.612793,1172.912720 1149.101929,1178.958008 
	C1153.646606,1189.994507 1161.723999,1198.850464 1168.507324,1208.494873 
	C1180.829956,1226.014771 1189.810913,1245.027588 1194.511963,1265.997314 
	C1197.327515,1278.556396 1199.262329,1291.251831 1201.065430,1303.990723 
	C1203.641846,1322.193726 1206.401245,1340.380005 1209.583252,1358.485352 
	C1212.173706,1373.223999 1216.432861,1387.724976 1218.154907,1402.540161 
	C1219.210815,1411.625122 1223.744995,1418.895508 1226.724487,1426.916626 
	C1229.330688,1433.932983 1230.087891,1440.933228 1229.245728,1447.969604 
	C1228.817505,1451.547974 1226.458740,1455.241943 1223.500000,1458.000000 
"/>
<path fill="none" opacity="1.000000" stroke="#000000" stroke-linecap="round" stroke-linejoin="round" stroke-width="8.000000"
	d="
M1451.000000,1149.500000 
	C1458.907593,1152.756592 1460.405762,1151.103882 1463.368530,1143.945557 
	C1464.875610,1140.304077 1466.429443,1137.193970 1469.375732,1134.370361 
	C1473.108887,1130.792603 1472.223267,1125.090820 1473.905396,1120.465576 
	C1475.360474,1116.464478 1475.490845,1111.959473 1477.087158,1108.035522 
	C1484.378174,1090.112671 1475.077881,1075.911011 1466.289429,1062.134399 
	C1459.688843,1051.787476 1451.113281,1042.708252 1443.535156,1032.972534 
	C1441.470215,1030.319580 1439.473145,1027.498901 1438.078735,1024.463867 
	C1435.546143,1018.952087 1435.501709,1012.753723 1433.627319,1006.958862 
	C1424.871582,979.890930 1419.431519,951.932068 1412.033569,924.490967 
	C1405.150024,898.957764 1395.519165,874.490723 1383.359619,851.072876 
	C1379.373779,843.396545 1374.229980,836.285645 1368.057861,829.943665 
	C1351.541260,812.972351 1336.359741,794.857117 1321.846680,776.118774 
	C1314.732056,766.932983 1306.161499,758.839233 1297.928467,750.571228 
	C1294.104126,746.730652 1289.950073,743.221436 1286.489136,739.008911 
	C1284.682983,736.810547 1282.408081,735.327454 1279.500000,735.000000 
"/>
<path fill="none" opacity="1.000000" stroke="#000000" stroke-linecap="round" stroke-linejoin="round" stroke-width="8.000000"
	d="
M717.000000,783.000000 
	C718.871643,786.319580 721.543213,787.566467 725.415283,788.772156 
	C744.740417,794.789734 762.522766,803.860474 777.014465,818.485718 
	C783.353210,824.882874 789.876648,831.080811 797.490295,836.015015 
	C803.446045,839.874756 810.282776,840.639648 817.008545,841.427246 
	C830.647888,843.024536 844.138611,844.992371 856.499023,851.501831 
	C867.591248,857.343384 877.330322,865.080627 886.464050,873.538818 
	C902.604370,888.485474 916.614136,905.412781 931.068481,921.940125 
	C944.432861,937.221191 958.666504,951.692200 974.454834,964.555481 
	C976.058411,965.862000 978.362244,966.876892 978.500000,969.500000 
"/>
<path fill="none" opacity="1.000000" stroke="#000000" stroke-linecap="round" stroke-linejoin="round" stroke-width="8.000000"
	d="
M994.500000,810.000000 
	C993.275818,813.869019 996.042969,816.701965 997.634277,819.421387 
	C1008.419922,837.853210 1020.360107,855.491089 1033.893921,872.086487 
	C1041.713257,881.674683 1045.870728,893.328674 1047.286255,905.524841 
	C1048.044189,912.055481 1045.933105,918.281128 1041.650146,924.110352 
	C1026.579712,944.621765 1004.308960,955.339661 983.445557,967.909607 
	C965.504456,978.718994 948.036316,990.144592 931.491882,1002.989563 
	C919.900146,1011.989136 909.208984,1021.980591 898.391968,1031.881958 
	C880.841614,1047.947144 864.797424,1065.409790 849.673645,1083.644043 
	C839.073425,1096.424316 827.505798,1108.552612 819.004333,1123.002563 
	C815.194824,1129.477661 813.378784,1136.497437 812.964905,1143.998047 
	C812.075134,1160.124390 816.841248,1174.925415 822.942749,1189.523926 
	C826.342773,1197.658936 831.038879,1205.438965 833.610840,1213.622314 
	C838.554993,1229.353027 845.928406,1243.831177 853.072876,1258.464355 
	C862.523499,1277.821045 872.638733,1296.839478 881.743164,1316.386719 
	C885.707764,1324.898682 885.620972,1333.973267 888.456177,1342.514526 
	C890.033569,1347.266846 891.046082,1352.204468 892.547913,1356.984985 
	C893.370422,1359.602905 892.884216,1361.361328 891.078247,1363.564209 
	C876.520569,1381.320557 855.348450,1386.079590 835.000427,1392.501221 
	C825.559570,1395.480835 815.965271,1397.751221 807.369019,1403.296997 
	C802.288269,1406.574707 800.269653,1411.408691 798.207886,1416.091553 
	C795.749268,1421.675903 800.601257,1427.934448 807.501709,1429.492554 
	C811.297363,1430.349487 815.395874,1430.777222 818.952759,1429.823730 
	C826.965149,1427.675781 834.917480,1427.840454 843.001404,1428.482544 
	C854.110840,1429.365112 864.376038,1426.056274 874.507080,1422.017700 
	C888.426880,1416.468750 902.766174,1416.127686 917.521118,1417.815552 
	C926.418213,1418.833252 935.413818,1420.296997 944.505127,1419.036865 
	C956.133057,1417.425415 963.979004,1410.038818 963.461670,1395.001343 
	C962.987854,1381.229004 956.957581,1368.875732 952.951416,1356.015137 
	C952.655823,1355.066162 951.666687,1354.333374 951.000000,1353.500000 
"/>
<path fill="none" opacity="1.000000" stroke="#000000" stroke-linecap="round" stroke-linejoin="round" stroke-width="6.000000"
	d="
M1238.000000,841.500000 
	C1234.630859,844.265869 1235.278442,848.392151 1234.537964,852.007751 
	C1233.315186,857.979248 1232.615112,864.071228 1231.124146,869.968140 
	C1230.439453,872.675842 1231.527588,874.367737 1232.451294,876.520935 
	C1239.543457,893.051575 1248.535400,908.670410 1255.894043,925.047607 
	C1266.562622,948.791626 1266.321167,972.997986 1256.442627,996.976379 
	C1250.021118,1012.563599 1240.025391,1025.989380 1229.487671,1038.989990 
	C1214.086548,1057.990479 1197.332642,1075.796753 1180.404785,1093.408447 
	C1171.507690,1102.665039 1161.712036,1111.063721 1153.517578,1121.014526 
	C1151.400879,1123.584961 1149.329224,1126.226318 1147.565063,1129.040771 
	C1146.528198,1130.694702 1145.397949,1131.570190 1143.500000,1131.500000 
"/>
<path fill="none" opacity="1.000000" stroke="#000000" stroke-linecap="round" stroke-linejoin="round" stroke-width="8.000000"
	d="
M676.500000,980.500000 
	C673.229980,995.828735 671.982544,1011.396851 672.119629,1026.998901 
	C672.249207,1041.753662 673.997375,1056.386963 676.295776,1071.032104 
	C679.959900,1094.378540 687.023010,1116.706909 695.748291,1138.400146 
	C703.979980,1158.866089 714.725464,1178.224487 726.380432,1197.073975 
	C739.124146,1217.684082 753.283630,1237.244995 768.639221,1255.885376 
	C779.422607,1268.975220 790.899902,1281.549805 802.977051,1293.523193 
	C805.148865,1295.676270 806.525085,1298.958130 810.500000,1298.000000 
"/>
<path fill="none" opacity="1.000000" stroke="#000000" stroke-linecap="round" stroke-linejoin="round" stroke-width="8.000000"
	d="
M320.500000,1318.750000 
	C321.357544,1319.115234 322.446808,1319.208618 322.500916,1320.500000 
	C323.007629,1332.591431 331.633698,1338.278198 341.081055,1342.310059 
	C350.008759,1346.119873 359.783691,1347.386841 369.490601,1348.576660 
	C385.048431,1350.484009 400.733124,1351.946167 415.024872,1359.452637 
	C425.263275,1364.830200 433.578796,1371.635620 436.535278,1383.491211 
	C438.326416,1390.673828 436.735016,1394.606201 429.980682,1397.454224 
	C426.591400,1398.883423 423.066864,1400.122314 419.488525,1400.950439 
	C403.013062,1404.762451 401.140198,1421.121826 409.620758,1431.905029 
	C418.666321,1443.406494 431.551575,1449.009277 445.488922,1452.543701 
	C457.357391,1455.553345 469.545166,1453.732910 481.516052,1455.383667 
	C490.021423,1456.556519 497.244568,1459.661743 503.541229,1465.455200 
	C507.903778,1469.469116 512.096802,1473.770752 517.500000,1476.500000 
"/>
<path fill="none" opacity="1.000000" stroke="#000000" stroke-linecap="round" stroke-linejoin="round" stroke-width="8.000000"
	d="
M888.500000,1365.000000 
	C882.977905,1360.998535 876.246826,1361.012085 869.989868,1359.543091 
	C844.622559,1353.588013 819.080078,1348.444702 793.495544,1343.523315 
	C774.390503,1339.848145 755.228394,1336.501343 736.018250,1333.387451 
	C721.880737,1331.095703 707.698608,1329.156494 693.483582,1327.655762 
	C683.188232,1326.568726 672.926208,1328.865845 663.045044,1331.659302 
	C656.272034,1333.574219 649.470215,1335.951294 643.500000,1340.000000 
"/>
<path fill="none" opacity="1.000000" stroke="#000000" stroke-linecap="round" stroke-linejoin="round" stroke-width="8.000000"
	d="
M1176.500000,774.500000 
	C1184.941040,771.902344 1192.024414,775.311462 1198.449097,780.068848 
	C1208.046631,787.175842 1216.934692,795.205200 1225.401001,803.599854 
	C1230.664185,808.818481 1236.121582,814.038757 1241.447876,819.021179 
	C1246.247681,823.511108 1252.448730,827.371155 1257.937622,831.581299 
	C1270.375244,841.121399 1283.684448,849.150757 1297.458008,856.577942 
	C1311.285278,864.034241 1319.692871,875.822083 1324.134644,890.960510 
	C1327.669678,903.008667 1332.140381,914.814148 1338.007568,925.996033 
	C1344.790527,938.923767 1352.835571,951.108459 1360.585327,963.446411 
	C1371.047607,980.102783 1379.464478,997.664490 1386.674316,1015.931213 
	C1388.736328,1021.155640 1390.047974,1026.661987 1393.069458,1031.755371 
	C1395.146973,1035.257446 1393.661743,1041.246826 1392.893921,1045.982788 
	C1391.425293,1055.041870 1389.017212,1063.951416 1387.621460,1073.018677 
	C1386.818115,1078.238037 1388.716187,1083.493530 1390.143433,1088.458740 
	C1393.175049,1099.004883 1396.408569,1109.432617 1397.126831,1120.491821 
	C1397.245605,1122.320190 1397.249756,1124.868042 1400.462891,1125.652100 
	C1403.336548,1126.353394 1404.863403,1125.200928 1406.494751,1123.494995 
	C1411.226562,1118.547241 1411.770508,1112.379395 1411.493164,1106.000244 
	C1411.260620,1100.651978 1408.782959,1095.300049 1411.884033,1089.932983 
	C1412.378296,1089.077759 1411.661133,1087.104492 1410.926392,1086.051514 
	C1409.703857,1084.300049 1409.367310,1082.505859 1409.500000,1080.500000 
"/>
<path fill="none" opacity="1.000000" stroke="#000000" stroke-linecap="round" stroke-linejoin="round" stroke-width="6.000000"
	d="
M1091.000000,1030.000000 
	C1080.195801,1038.151001 1068.256226,1044.544922 1056.981689,1051.972168 
	C1025.629517,1072.625610 992.554016,1090.298462 959.498535,1107.997314 
	C940.545105,1118.145508 922.507690,1129.702515 906.053772,1143.563843 
	C899.840698,1148.797974 895.080872,1155.402222 892.033569,1163.013428 
	C888.477234,1171.895874 888.539490,1181.110474 891.611877,1189.961182 
	C895.831360,1202.116455 900.711548,1214.049194 905.528198,1225.988647 
	C912.983398,1244.468384 916.663330,1263.736084 918.595215,1283.490723 
	C919.762634,1295.427856 921.972839,1307.251343 924.391479,1319.022339 
	C924.837524,1321.193115 926.976990,1322.618774 926.500000,1325.000000 
"/>
<path fill="none" opacity="1.000000" stroke="#000000" stroke-linecap="round" stroke-linejoin="round" stroke-width="8.000000"
	d="
M924.500000,722.500000 
	C920.100037,724.065491 915.830017,722.171814 911.502441,721.952148 
	C899.422668,721.338928 887.976868,724.363831 876.490417,727.464600 
	C863.637146,730.934265 850.782654,734.251709 837.525940,736.178589 
	C824.215881,738.113220 810.890259,739.146362 797.505615,740.080322 
	C783.030640,741.090393 771.034546,748.082581 759.994690,756.993408 
	C749.014038,765.856384 736.827454,772.687134 724.016907,778.536987 
	C710.496033,784.711182 696.187744,788.790222 682.501709,794.504089 
	C668.380066,800.399719 655.045410,807.774414 642.576355,816.607788 
	C639.789246,818.582153 636.473999,819.397766 633.912231,821.910522 
	C629.151672,826.580200 628.143188,832.609070 627.644165,838.512207 
	C626.678467,849.936646 621.817017,858.664673 613.153259,866.176758 
	C607.507019,871.072571 603.078613,877.483032 598.658813,883.614441 
	C597.371704,885.399963 595.833496,886.838928 594.463501,888.469360 
	C592.954773,890.265076 591.477539,891.950195 588.455505,890.599548 
	C585.524292,889.289673 585.246460,887.144165 584.957520,884.504639 
	C584.099609,876.666443 588.112915,870.560486 592.086548,864.557312 
	C594.001038,861.664856 595.170105,858.917603 594.500000,855.500000 
"/>
<path fill="none" opacity="1.000000" stroke="#000000" stroke-linecap="round" stroke-linejoin="round" stroke-width="6.000000"
	d="
M908.500000,1425.500000 
	C908.265320,1426.450684 908.834351,1427.323975 909.509583,1427.447876 
	C926.979919,1430.650391 943.536316,1437.070557 960.459595,1442.135010 
	C988.644714,1450.569580 1016.800293,1459.109741 1044.964722,1467.616577 
	C1066.466431,1474.110840 1087.968994,1480.603394 1109.454590,1487.149048 
	C1111.263550,1487.700073 1113.559570,1487.252930 1115.000000,1489.000000 
"/>
<path fill="none" opacity="1.000000" stroke="#000000" stroke-linecap="round" stroke-linejoin="round" stroke-width="8.000000"
	d="
M1031.500000,1562.000000 
	C1031.581787,1564.523804 1033.308228,1566.094849 1035.023560,1567.470581 
	C1054.364502,1582.983887 1075.744263,1594.875610 1099.540771,1601.861206 
	C1112.667480,1605.714722 1126.039551,1608.813721 1139.452637,1611.718628 
	C1148.313477,1613.637817 1157.104248,1616.105591 1166.005249,1617.974854 
	C1184.654541,1621.891235 1203.344116,1625.615723 1221.990723,1629.544067 
	C1225.584717,1630.301147 1229.592651,1630.442383 1232.000000,1634.000000 
"/>
<path fill="none" opacity="1.000000" stroke="#000000" stroke-linecap="round" stroke-linejoin="round" stroke-width="8.000000"
	d="
M1063.000000,1087.500000 
	C1064.440308,1093.998413 1058.923218,1097.802246 1056.947754,1102.980103 
	C1052.678345,1114.170410 1045.568848,1124.253784 1043.993530,1136.499146 
	C1041.882446,1152.909058 1044.436035,1168.631348 1051.560181,1183.471069 
	C1058.917236,1198.796021 1068.075195,1213.037964 1078.400269,1226.576050 
	C1081.719116,1230.927734 1083.014526,1236.568115 1085.365967,1241.563110 
	C1092.392212,1256.488403 1097.658936,1272.171997 1104.902954,1287.047241 
	C1113.495605,1304.691650 1124.373901,1320.976807 1134.019531,1337.988892 
	C1143.762573,1355.172485 1152.390259,1372.881470 1158.925049,1391.526245 
	C1162.052246,1400.448975 1164.287354,1409.654907 1166.166626,1418.966431 
	C1167.080322,1423.494141 1167.458862,1427.573853 1166.148926,1432.043579 
	C1165.590576,1433.948975 1166.667114,1436.333252 1167.000000,1438.500000 
	C1168.643188,1449.192261 1164.754150,1458.261963 1158.470337,1466.477295 
	C1149.685303,1477.962646 1139.281494,1487.873535 1128.636597,1497.648804 
	C1120.936646,1504.719971 1114.236206,1512.951050 1107.591064,1521.074463 
	C1103.036377,1526.642456 1103.707031,1533.041992 1112.556030,1536.350098 
	C1115.535400,1537.463989 1119.231323,1537.309082 1122.481934,1536.867188 
	C1125.773315,1536.419800 1128.488647,1535.268311 1128.727051,1530.511353 
	C1129.010864,1524.846924 1133.067993,1520.392212 1136.539062,1516.031006 
	C1137.879639,1514.346680 1139.189331,1512.798218 1139.000000,1510.500000 
"/>
<path fill="none" opacity="1.000000" stroke="#000000" stroke-linecap="round" stroke-linejoin="round" stroke-width="6.000000"
	d="
M1044.000000,922.500000 
	C1052.550903,928.991699 1060.723755,935.956665 1069.964966,941.557800 
	C1085.695923,951.092285 1102.307983,957.343872 1120.993530,955.914795 
	C1128.776123,955.319580 1136.438721,953.592896 1144.008667,951.531677 
	C1156.276978,948.191040 1168.360718,944.256531 1180.530029,940.599915 
	C1194.894897,936.283569 1209.657104,935.731018 1224.500000,938.000000 
"/>
<path fill="none" opacity="1.000000" stroke="#000000" stroke-linecap="round" stroke-linejoin="round" stroke-width="8.000000"
	d="
M1137.000000,617.500000 
	C1157.519531,624.103882 1175.084717,636.333191 1193.586548,646.847595 
	C1203.256470,652.342896 1213.441284,657.005371 1222.459839,663.555237 
	C1241.588623,677.447754 1256.005981,695.482300 1267.527954,715.984253 
	C1270.677246,721.587769 1274.186890,726.987915 1277.480469,732.511597 
	C1278.048584,733.464355 1279.350464,734.207092 1278.971924,735.491699 
	C1277.085083,741.896179 1281.377319,747.401306 1281.500000,753.500000 
"/>
<path fill="none" opacity="1.000000" stroke="#000000" stroke-linecap="round" stroke-linejoin="round" stroke-width="8.000000"
	d="
M1165.500000,1433.000000 
	C1154.200684,1431.097656 1143.575073,1426.730713 1132.506104,1423.975708 
	C1125.544067,1422.242920 1118.760620,1419.320312 1111.925903,1417.843018 
	C1092.352051,1413.612793 1073.380737,1407.311279 1053.992798,1402.529175 
	C1031.190186,1396.904663 1008.325684,1391.531372 985.505554,1385.977173 
	C979.968445,1384.629639 974.535767,1382.841553 968.980042,1381.588501 
	C967.103149,1381.165161 964.847351,1380.001343 963.000000,1382.000000 
"/>
<path fill="none" opacity="1.000000" stroke="#000000" stroke-linecap="round" stroke-linejoin="round" stroke-width="8.000000"
	d="
M1210.000000,960.000000 
	C1207.833374,960.000000 1205.663330,960.078125 1203.500488,959.987915 
	C1181.021606,959.050232 1162.382446,968.104858 1145.479858,981.975464 
	C1128.936279,995.551697 1116.548950,1012.649109 1104.559326,1030.040894 
	C1094.932617,1044.005249 1085.918701,1058.390747 1076.454956,1072.469727 
	C1073.021484,1077.577515 1068.328491,1081.649658 1064.010742,1086.010620 
	C1063.761597,1086.262207 1063.712158,1086.924683 1063.493530,1086.963135 
	C1049.825684,1089.370972 1040.143921,1099.292114 1028.513916,1105.526001 
	C1006.227417,1117.472168 983.662292,1128.822266 960.528442,1139.064331 
	C947.015869,1145.046631 934.374207,1152.698364 922.544617,1161.559570 
	C916.776306,1165.880371 914.902222,1172.471191 919.470886,1180.516602 
	C925.377808,1190.918579 930.927673,1201.552612 934.425049,1213.022827 
	C938.486145,1226.342163 941.140625,1239.937500 941.053223,1254.000366 
	C940.971375,1267.165405 940.765015,1280.374023 941.702698,1293.485474 
	C942.313049,1302.020752 942.332947,1310.708618 947.641785,1318.736816 
	C950.629883,1323.255615 950.010376,1330.164917 950.985352,1336.002441 
	C951.093628,1336.651001 950.901794,1337.350464 951.014343,1337.997559 
	C953.894897,1354.561768 952.419617,1352.298218 938.313049,1361.203857 
	C924.417725,1369.976074 908.907043,1368.313110 893.993713,1362.015015 
	C893.710815,1361.895508 893.333313,1362.000000 893.000000,1362.000000 
"/>
<path fill="none" opacity="1.000000" stroke="#000000" stroke-linecap="round" stroke-linejoin="round" stroke-width="7.000000"
	d="
M565.500000,1085.500000 
	C565.618652,1095.457642 567.252625,1105.280518 569.134277,1114.973877 
	C572.264038,1131.097412 576.525146,1146.961304 581.937317,1162.521851 
	C588.295349,1180.801636 596.760254,1198.071411 606.030823,1214.983154 
	C608.831543,1220.092285 612.000000,1225.000000 615.000000,1230.000000 
"/>
<path fill="none" opacity="1.000000" stroke="#000000" stroke-linecap="round" stroke-linejoin="round" stroke-width="7.000000"
	d="
M842.000000,1096.000000 
	C848.003052,1100.816040 855.109558,1103.938110 861.065308,1108.921997 
	C872.420715,1118.424438 877.010986,1131.399536 869.976318,1145.988525 
	C865.086914,1156.128418 862.501953,1166.666138 862.940308,1178.002319 
	C863.281006,1186.814209 861.978699,1195.467163 856.941406,1202.960571 
	C852.386414,1209.736450 846.606018,1214.617676 837.484070,1212.570923 
	C836.603210,1212.373291 835.500000,1213.166626 834.500000,1213.499878 
"/>
<path fill="none" opacity="1.000000" stroke="#000000" stroke-linecap="round" stroke-linejoin="round" stroke-width="8.000000"
	d="
M834.000000,922.500000 
	C830.117188,928.063782 823.576477,930.071716 818.371948,933.822327 
	C803.931091,944.229187 793.891968,957.987122 786.055359,973.527893 
	C774.820679,995.807251 769.702271,1019.588989 768.284119,1044.487671 
	C767.508057,1058.113770 767.917053,1071.588989 769.627625,1084.983643 
	C772.448486,1107.072144 778.502686,1128.414062 787.064392,1148.973145 
	C790.556946,1157.359863 794.370300,1165.645142 799.051147,1173.469360 
	C799.489319,1174.201904 799.399292,1174.816895 799.500000,1175.500000 
"/>
<path fill="none" opacity="1.000000" stroke="#000000" stroke-linecap="round" stroke-linejoin="round" stroke-width="7.000000"
	d="
M326.500000,1087.500000 
	C329.074005,1071.037476 318.540924,1059.548706 310.922668,1047.047119 
	C306.969971,1040.560791 301.054626,1035.792236 294.479248,1032.036255 
	C287.929901,1028.295288 279.868073,1030.574097 278.016113,1036.505005 
	C276.624176,1040.962646 278.326965,1044.984375 279.992035,1049.003296 
	C283.706879,1057.970093 290.708130,1063.818481 299.053864,1067.889526 
	C306.758820,1071.648071 314.274231,1075.519409 320.478027,1081.522705 
	C322.080872,1083.073730 324.272156,1082.543213 326.000000,1083.500000 
"/>
<path fill="none" opacity="1.000000" stroke="#000000" stroke-linecap="round" stroke-linejoin="round" stroke-width="7.000000"
	d="
M1111.500000,1417.000000 
	C1111.913940,1413.505127 1110.841187,1410.498779 1109.061401,1407.463989 
	C1105.108643,1400.723633 1101.444336,1393.863770 1095.029175,1388.961914 
	C1091.244507,1386.069946 1087.293335,1384.789185 1082.492920,1385.448608 
	C1072.999512,1386.753052 1067.237915,1380.809204 1062.990234,1373.505737 
	C1059.639648,1367.744751 1057.993530,1361.213745 1054.596069,1355.443481 
	C1052.981934,1352.701782 1051.427612,1349.988892 1048.969238,1348.038818 
	C1044.334961,1344.363281 1039.017700,1346.674805 1037.943970,1352.489624 
	C1037.477539,1355.015625 1037.204224,1357.559937 1036.088501,1360.039795 
	C1033.161743,1366.544556 1027.836426,1368.160767 1022.536743,1363.458618 
	C1017.303162,1358.814941 1014.089233,1352.674072 1010.994568,1346.502686 
	C1006.355896,1337.252197 1001.806702,1328.004272 995.067261,1319.943726 
	C987.018555,1310.317505 976.886414,1304.293091 964.977966,1301.081787 
	C962.294861,1300.358154 959.333313,1300.666748 956.500000,1300.500000 
"/>
<path fill="none" opacity="1.000000" stroke="#000000" stroke-linecap="round" stroke-linejoin="round" stroke-width="7.000000"
	d="
M1060.500000,517.500000 
	C1064.162598,525.417358 1062.697021,535.137573 1055.910767,540.384644 
	C1047.661743,546.762634 1044.409302,555.190552 1043.536255,565.003235 
	C1043.350098,567.095825 1043.388062,569.310486 1040.983154,569.934998 
	C1038.600220,570.553833 1037.152954,568.515869 1036.134766,566.914307 
	C1035.599487,566.072266 1035.078003,564.830505 1034.892944,563.515076 
	C1034.034302,557.412598 1029.899292,553.218872 1025.425781,549.591553 
	C1022.678772,547.364136 1018.681824,546.643433 1015.579102,548.161682 
	C1011.202759,550.303162 1008.979248,554.450684 1008.464661,559.496399 
	C1007.337219,570.550232 1010.768372,580.330017 1016.518494,589.488403 
	C1018.613342,592.824890 1026.316406,594.937866 1030.500000,593.500000 
"/>
<path fill="none" opacity="1.000000" stroke="#000000" stroke-linecap="round" stroke-linejoin="round" stroke-width="7.000000"
	d="
M1055.000000,1110.500000 
	C1057.396606,1110.609863 1059.734985,1110.688477 1062.013428,1109.526245 
	C1070.326904,1105.285278 1079.197510,1103.485840 1088.498901,1104.019897 
	C1097.002686,1104.508179 1104.856445,1107.075195 1111.463379,1112.544189 
	C1116.979492,1117.110229 1117.693604,1123.766479 1115.125977,1131.044434 
	C1113.076294,1136.854614 1110.215942,1142.330811 1108.867676,1148.470947 
	C1107.010254,1156.930054 1108.637085,1164.895752 1110.462036,1173.008545 
	C1112.140137,1180.468506 1114.188965,1187.944824 1114.794678,1195.516479 
	C1115.336304,1202.284790 1113.549927,1209.179077 1110.852173,1215.436279 
	C1108.889771,1219.987549 1105.996826,1224.213257 1101.033813,1226.571167 
	C1096.797119,1228.583984 1092.637085,1229.804688 1088.000000,1228.500122 
	C1085.500488,1227.797119 1083.000000,1227.798828 1080.500000,1228.500000 
"/>
<path fill="none" opacity="1.000000" stroke="#000000" stroke-linecap="round" stroke-linejoin="round" stroke-width="8.000000"
	d="
M622.500000,773.000000 
	C622.211853,775.281616 620.575012,776.706421 618.973389,777.966187 
	C612.275085,783.234619 605.841858,788.801331 600.021973,795.020569 
	C590.879333,804.790405 578.954346,810.273010 567.498535,816.497253 
	C563.174072,818.846924 558.784302,821.080933 554.512756,823.522339 
	C549.525269,826.372986 545.411987,829.846130 542.859497,835.435852 
	C539.304688,843.220581 533.619934,849.890137 530.452515,857.981445 
	C527.141357,866.440063 527.420776,875.222717 527.572205,883.998779 
	C527.611023,886.252441 529.390625,887.948364 531.000000,889.500000 
"/>
<path fill="none" opacity="1.000000" stroke="#000000" stroke-linecap="round" stroke-linejoin="round" stroke-width="6.000000"
	d="
M1276.500000,765.000000 
	C1266.673218,768.965576 1256.698608,768.676819 1246.485718,766.569031 
	C1235.695679,764.342163 1225.437744,760.188477 1214.513550,758.416504 
	C1203.113647,756.567383 1191.988525,756.145081 1180.987793,760.468994 
	C1166.286499,766.247437 1160.095215,778.557983 1156.034546,792.510071 
	C1154.329834,798.366760 1153.602783,804.420959 1152.846924,810.480896 
	C1152.550537,812.858093 1152.901489,814.627502 1154.000000,816.500000 
"/>
<path fill="none" opacity="1.000000" stroke="#000000" stroke-linecap="round" stroke-linejoin="round" stroke-width="7.000000"
	d="
M643.500000,1224.500000 
	C655.419922,1245.472412 670.511902,1264.013184 687.557617,1280.942017 
	C699.584167,1292.886108 712.594360,1303.756226 726.518555,1313.473389 
	C727.879272,1314.422974 729.500000,1315.000000 731.000000,1315.750000 
"/>
<path fill="none" opacity="1.000000" stroke="#000000" stroke-linecap="round" stroke-linejoin="round" stroke-width="8.000000"
	d="
M472.500031,997.500000 
	C470.333374,1006.000000 468.001465,1014.462219 466.047913,1023.010925 
	C464.208038,1031.062378 463.235016,1039.257202 462.414093,1047.491455 
	C461.417877,1057.484497 460.785065,1067.478516 461.048187,1077.498779 
	C461.365112,1089.566772 462.494293,1101.544067 464.301666,1113.529907 
	C466.084259,1125.351440 468.420624,1136.999878 471.575928,1148.479126 
	C473.941315,1157.084839 477.000000,1165.500000 479.750000,1174.000000 
"/>
<path fill="none" opacity="1.000000" stroke="#000000" stroke-linecap="round" stroke-linejoin="round" stroke-width="8.000000"
	d="
M1011.000000,611.000000 
	C1013.137512,613.487244 1013.040771,616.486328 1013.009033,619.500122 
	C1012.772461,641.965576 1028.180542,659.613770 1048.064819,664.220032 
	C1059.961792,666.976135 1072.265259,665.960876 1082.000000,656.500000 
"/>
<path fill="none" opacity="1.000000" stroke="#000000" stroke-linecap="round" stroke-linejoin="round" stroke-width="7.000000"
	d="
M1016.500000,591.000000 
	C1012.033020,595.458252 1009.604187,600.515259 1011.437500,607.017639 
	C1011.747437,608.116943 1011.954041,609.607544 1010.505920,610.509521 
	C1003.273193,615.014282 1001.984924,622.813416 1001.243469,630.025024 
	C1000.279846,639.397583 1000.858398,648.814087 1004.340332,658.060120 
	C1008.894958,670.154480 1016.721130,679.256958 1027.021729,686.468994 
	C1045.254639,699.234924 1073.307251,697.659119 1091.148926,683.690186 
	C1097.216309,678.939758 1101.915405,673.369873 1106.411743,667.433167 
	C1107.575073,665.897034 1109.257080,663.939270 1108.000000,661.500000 
"/>
<path fill="none" opacity="1.000000" stroke="#000000" stroke-linecap="round" stroke-linejoin="round" stroke-width="6.000000"
	d="
M1099.000000,679.000000 
	C1104.391602,687.009521 1108.429688,695.793396 1113.373535,704.075500 
	C1125.190552,723.871216 1137.963623,742.905579 1153.494873,760.004700 
	C1157.072510,763.943542 1159.813721,768.747742 1165.000000,771.000000 
"/>
<path fill="none" opacity="1.000000" stroke="#000000" stroke-linecap="round" stroke-linejoin="round" stroke-width="6.000000"
	d="
M557.500000,1443.500000 
	C557.322144,1433.856445 553.068420,1425.510620 548.391724,1417.563721 
	C541.183838,1405.315430 530.896973,1395.875366 518.445618,1389.099976 
	C512.191528,1385.696655 505.197144,1383.958984 497.999451,1383.508667 
	C493.475067,1383.225586 489.600830,1384.965088 487.884857,1389.056519 
	C486.042877,1393.448364 488.263916,1397.633667 490.513641,1401.492065 
	C491.413239,1403.034912 493.713470,1403.396606 494.000000,1405.500000 
"/>
<path fill="none" opacity="1.000000" stroke="#000000" stroke-linecap="round" stroke-linejoin="round" stroke-width="8.000000"
	d="
M884.500000,695.500000 
	C898.103516,699.544495 910.342346,706.080872 920.995056,715.505554 
	C921.699890,716.129150 922.704712,716.721863 922.943359,717.516968 
	C925.853699,727.213745 936.484741,730.047180 941.170105,738.404663 
	C945.897827,746.837585 952.430603,754.242859 957.398132,762.560852 
	C964.671448,774.739990 972.507935,786.446594 982.015381,796.986084 
	C985.251648,800.573730 988.775574,803.904968 991.951233,807.542542 
	C993.405029,809.207825 994.971619,809.630066 997.001343,809.526306 
	C999.117920,809.418030 1001.010376,810.000732 1003.055237,810.870056 
	C1007.993896,812.969666 1013.168640,814.567261 1018.500000,815.500000 
"/>
<path fill="none" opacity="1.000000" stroke="#000000" stroke-linecap="round" stroke-linejoin="round" stroke-width="8.000000"
	d="
M1836.500000,441.500000 
	C1808.666626,441.500000 1780.833374,441.486145 1753.000000,441.534637 
	C1751.343262,441.537506 1749.577515,440.941315 1748.000000,442.000000 
"/>
<path fill="none" opacity="1.000000" stroke="#000000" stroke-linecap="round" stroke-linejoin="round" stroke-width="8.000000"
	d="
M1454.000000,442.000000 
	C1452.422485,440.941315 1450.656738,441.537537 1449.000000,441.534637 
	C1421.166626,441.486145 1393.333374,441.500000 1365.500000,441.500000 
"/>
<path fill="none" opacity="1.000000" stroke="#000000" stroke-linecap="round" stroke-linejoin="round" stroke-width="8.000000"
	d="
M1237.500000,1458.000000 
	C1236.764526,1463.038574 1239.564087,1467.319336 1240.505371,1471.998901 
	C1241.723389,1478.054688 1242.754272,1483.911865 1238.660889,1489.615479 
	C1237.375977,1491.405762 1236.100952,1493.434204 1234.432983,1494.382080 
	C1225.284912,1499.581055 1218.261475,1506.925781 1212.546875,1515.531128 
	C1205.090088,1526.760010 1192.884033,1531.164917 1181.973145,1537.453369 
	C1181.347534,1537.813843 1180.283081,1537.682617 1179.508423,1537.469482 
	C1175.330322,1536.319580 1171.622070,1537.438110 1167.973267,1539.451538 
	C1166.810181,1540.093384 1165.055786,1540.818481 1164.047241,1540.388916 
	C1159.274780,1538.356567 1154.625488,1540.441162 1150.011353,1540.240356 
	C1145.169067,1540.029541 1140.455811,1538.928711 1135.474609,1539.865234 
	C1132.493408,1540.425903 1130.076538,1538.127319 1128.000000,1536.000000 
"/>
<path fill="none" opacity="1.000000" stroke="#000000" stroke-linecap="round" stroke-linejoin="round" stroke-width="6.000000"
	d="
M1152.500000,821.000000 
	C1155.912842,826.015808 1157.563965,831.952820 1161.895630,836.597351 
	C1170.628418,845.960938 1181.913574,851.050598 1193.027832,856.442627 
	C1203.865234,861.700378 1215.566162,865.055359 1226.031250,871.196716 
	C1227.132202,871.842712 1228.666626,871.750000 1230.000000,872.000000 
"/>
<path fill="none" opacity="1.000000" stroke="#000000" stroke-linecap="round" stroke-linejoin="round" stroke-width="7.000000"
	d="
M310.500000,1219.500000 
	C305.913239,1208.447876 297.522369,1201.910645 285.978790,1199.606323 
	C282.053833,1198.822632 277.965363,1200.522583 276.181976,1204.090942 
	C274.556885,1207.342529 274.888031,1211.234497 277.475220,1214.519531 
	C281.214874,1219.267822 285.817596,1222.013794 291.990021,1222.604370 
	C296.678162,1223.052856 301.269836,1223.770020 306.010803,1223.073486 
	C308.188110,1222.753296 309.868866,1222.303345 310.500000,1220.000000 
"/>
<path fill="none" opacity="1.000000" stroke="#000000" stroke-linecap="round" stroke-linejoin="round" stroke-width="8.000000"
	d="
M1466.500000,497.749939 
	C1450.333252,504.499939 1434.162476,511.239990 1418.001587,518.003723 
	C1408.492920,521.983276 1398.958374,525.906128 1389.537842,530.085388 
	C1387.811890,530.851074 1386.222656,530.946716 1384.500000,531.000000 
"/>
<path fill="none" opacity="1.000000" stroke="#000000" stroke-linecap="round" stroke-linejoin="round" stroke-width="9.000000"
	d="
M1599.500000,212.750000 
	C1602.217896,213.201401 1601.509155,215.321198 1601.479980,216.999649 
	C1601.361572,223.833817 1601.046509,230.666260 1601.022949,237.500076 
	C1600.957153,256.666504 1601.000000,275.833344 1601.000000,295.000000 
"/>
<path fill="none" opacity="1.000000" stroke="#000000" stroke-linecap="round" stroke-linejoin="round" stroke-width="7.000000"
	d="
M498.000000,1519.000000 
	C490.003052,1512.797729 480.820557,1511.146851 471.000793,1512.008911 
	C467.422821,1512.322998 464.212006,1513.871826 461.554413,1516.065918 
	C456.971710,1519.849487 457.682129,1525.129395 463.029907,1527.943115 
	C464.971802,1528.964844 467.212585,1529.685913 469.498169,1529.479614 
	C478.749146,1528.644043 486.948761,1524.760132 494.973419,1520.450562 
	C495.510010,1520.162354 495.666687,1519.166626 496.000031,1518.500000 
"/>
<path fill="none" opacity="1.000000" stroke="#000000" stroke-linecap="round" stroke-linejoin="round" stroke-width="8.000000"
	d="
M1545.500000,575.500000 
	C1546.773560,578.931152 1544.557129,581.822083 1543.344971,584.427856 
	C1534.637695,603.142883 1527.730713,622.598633 1519.430908,641.469604 
	C1517.811768,645.150757 1516.251831,648.909485 1514.753540,652.602844 
	C1513.644653,655.335815 1512.312378,654.933105 1510.500000,655.000000 
"/>
<path fill="none" opacity="1.000000" stroke="#000000" stroke-linecap="round" stroke-linejoin="round" stroke-width="6.000000"
	d="
M1169.000000,805.500000 
	C1164.772339,809.725342 1159.838013,813.051453 1155.171265,816.718018 
	C1146.850586,823.255371 1137.588623,826.140625 1127.525879,828.131042 
	C1118.610840,829.894470 1109.880615,829.675293 1100.994873,828.540466 
	C1091.319092,827.304688 1082.040283,824.308472 1072.500000,822.500000 
"/>
<path fill="none" opacity="1.000000" stroke="#000000" stroke-linecap="round" stroke-linejoin="round" stroke-width="8.000000"
	d="
M1735.500000,497.750000 
	C1752.212402,504.159851 1768.684448,511.134277 1785.024048,518.446350 
	C1793.889404,522.413757 1803.005737,525.819519 1811.989502,529.525452 
	C1812.735474,529.833191 1813.333374,530.499939 1814.000000,530.999939 
"/>
<path fill="none" opacity="1.000000" stroke="#000000" stroke-linecap="round" stroke-linejoin="round" stroke-width="8.000000"
	d="
M1688.000000,229.500000 
	C1684.788574,239.575775 1680.097168,249.067551 1676.356201,258.945526 
	C1670.220581,275.146667 1663.162476,290.998260 1656.522339,307.009247 
	C1656.345459,307.435883 1656.500000,308.000000 1656.500000,308.500000 
"/>
<path fill="none" opacity="1.000000" stroke="#000000" stroke-linecap="round" stroke-linejoin="round" stroke-width="8.000000"
	d="
M1815.500000,353.500000 
	C1804.727783,356.366089 1794.857544,361.579193 1784.567749,365.670502 
	C1774.168091,369.805542 1763.878418,374.272858 1753.507080,378.517395 
	C1747.634277,380.920898 1741.833374,383.500031 1736.000000,386.000031 
"/>
<path fill="none" opacity="1.000000" stroke="#000000" stroke-linecap="round" stroke-linejoin="round" stroke-width="7.000000"
	d="
M1388.000000,354.000000 
	C1398.449951,357.475464 1408.385620,362.201263 1418.515381,366.463531 
	C1434.290649,373.101410 1450.166626,379.500000 1466.000000,386.000000 
"/>
<path fill="none" opacity="1.000000" stroke="#000000" stroke-linecap="round" stroke-linejoin="round" stroke-width="8.000000"
	d="
M1513.500000,229.750000 
	C1519.500000,244.166672 1525.525269,258.572906 1531.491821,273.003387 
	C1536.032959,283.986359 1540.502441,294.998962 1544.985229,306.006012 
	C1545.101685,306.291931 1545.000000,306.666656 1545.000000,307.000000 
"/>
<path fill="none" opacity="1.000000" stroke="#000000" stroke-linecap="round" stroke-linejoin="round" stroke-width="6.000000"
	d="
M1005.000000,662.500000 
	C998.765991,666.102905 994.013123,671.533875 988.594482,676.111816 
	C976.687134,686.171509 965.435974,696.988159 956.019043,709.514282 
	C950.877686,716.353027 945.667908,723.173218 942.951721,731.484253 
	C942.641357,732.434021 941.666687,733.166687 941.000061,734.000000 
"/>
<path fill="none" opacity="1.000000" stroke="#000000" stroke-linecap="round" stroke-linejoin="round" stroke-width="7.000000"
	d="
M1654.500000,578.500000 
	C1656.586304,578.045776 1657.354736,579.349976 1658.013306,580.994629 
	C1664.491089,597.170288 1670.802002,613.416992 1677.587524,629.462952 
	C1680.758545,636.961548 1684.129272,644.378052 1686.961060,652.014465 
	C1687.708740,654.030579 1690.849121,654.658081 1690.000000,657.500000 
"/>
<path fill="none" opacity="1.000000" stroke="#000000" stroke-linecap="round" stroke-linejoin="round" stroke-width="8.000000"
	d="
M1440.000000,1089.000000 
	C1442.702759,1097.709351 1446.837402,1105.930786 1448.536743,1114.993164 
	C1450.587036,1125.928833 1450.532715,1136.960083 1450.466309,1147.999756 
	C1450.454224,1150.008301 1446.166992,1152.335327 1444.013672,1151.466187 
	C1439.355469,1149.585938 1437.379028,1145.674805 1436.492920,1141.001343 
	C1434.894531,1132.572876 1433.471069,1124.103516 1430.507080,1115.997437 
	C1427.475952,1107.707886 1424.055664,1099.631470 1417.983643,1093.015015 
	C1416.489502,1091.387085 1415.088745,1089.479614 1412.500000,1089.500000 
"/>
<path fill="none" opacity="1.000000" stroke="#000000" stroke-linecap="round" stroke-linejoin="round" stroke-width="6.000000"
	d="
M1133.500000,905.500000 
	C1118.852173,905.119141 1104.327759,903.760193 1089.990845,900.540955 
	C1082.466431,898.851501 1075.030640,897.023071 1067.968018,893.820496 
	C1066.692505,893.242126 1065.000000,893.583374 1063.500000,893.500000 
"/>
<path fill="none" opacity="1.000000" stroke="#000000" stroke-linecap="round" stroke-linejoin="round" stroke-width="8.000000"
	d="
M993.000000,530.500000 
	C994.590942,534.101929 993.424561,537.846985 993.429443,541.500122 
	C993.449036,556.329285 997.397095,570.188477 1003.570190,583.467346 
	C1005.705811,588.061218 1006.361633,593.687683 1011.500000,596.500000 
"/>
<path fill="none" opacity="1.000000" stroke="#000000" stroke-linecap="round" stroke-linejoin="round" stroke-width="8.000000"
	d="
M1765.000000,606.000061 
	C1748.833252,590.000061 1732.674438,573.992065 1716.493530,558.006592 
	C1713.139648,554.693176 1710.156616,551.043457 1706.655151,547.830872 
	C1704.875244,546.197693 1703.403320,546.075134 1701.500000,546.000000 
"/>
<path fill="none" opacity="1.000000" stroke="#000000" stroke-linecap="round" stroke-linejoin="round" stroke-width="7.000000"
	d="
M568.000000,839.500000 
	C566.608154,845.457153 562.560730,850.037476 559.355713,854.904968 
	C551.760620,866.439697 548.146667,879.244507 545.495056,892.499023 
	C544.693542,896.505371 543.833313,900.500000 543.000000,904.500000 
"/>
<path fill="none" opacity="1.000000" stroke="#000000" stroke-linecap="round" stroke-linejoin="round" stroke-width="8.000000"
	d="
M599.500000,851.750000 
	C596.656067,853.776794 594.044739,855.405579 589.991821,855.292175 
	C586.258362,855.187683 583.049255,858.498047 579.988037,860.985291 
	C569.969849,869.124817 563.896423,879.704407 560.484375,891.995667 
	C559.307617,896.234619 557.500183,900.158325 554.521606,903.519165 
	C551.019897,907.470093 548.858337,908.047424 544.525574,905.457275 
	C543.031494,904.564026 541.833313,904.028259 540.500000,905.500000 
"/>
<path fill="none" opacity="1.000000" stroke="#000000" stroke-linecap="round" stroke-linejoin="round" stroke-width="8.000000"
	d="
M1499.500000,546.500000 
	C1496.742920,545.806458 1495.531616,547.984680 1494.006958,549.507019 
	C1477.995605,565.495667 1462.009766,581.509766 1445.988892,597.488892 
	C1443.735840,599.736023 1440.812378,601.497314 1439.139771,604.090149 
	C1437.293457,606.952271 1435.065063,606.702637 1432.500000,606.500000 
"/>
<path fill="none" opacity="1.000000" stroke="#000000" stroke-linecap="round" stroke-linejoin="round" stroke-width="7.000000"
	d="
M1117.500000,470.500000 
	C1117.339111,466.261658 1115.141602,464.016785 1111.019287,462.927155 
	C1105.511475,461.471375 1100.744385,458.155792 1095.585083,455.812561 
	C1083.370239,450.264832 1070.844849,447.556183 1057.500977,448.514038 
	C1056.660278,448.574371 1055.869385,448.359558 1054.966919,448.949310 
	C1051.328979,451.326721 1047.141357,451.253693 1043.000000,451.250000 
"/>
<path fill="none" opacity="1.000000" stroke="#000000" stroke-linecap="round" stroke-linejoin="round" stroke-width="8.000000"
	d="
M1765.000000,277.500000 
	C1748.599243,293.099182 1732.595215,309.094330 1716.986450,325.487061 
	C1713.411743,329.241302 1709.587646,332.759338 1706.045776,336.542847 
	C1704.914429,337.751404 1703.731689,337.394348 1702.500000,337.500000 
"/>
<path fill="none" opacity="1.000000" stroke="#000000" stroke-linecap="round" stroke-linejoin="round" stroke-width="8.000000"
	d="
M1437.000000,277.500000 
	C1444.000000,284.333344 1451.077515,291.089447 1457.982422,298.017487 
	C1469.380127,309.453308 1480.678955,320.987976 1491.988525,332.511322 
	C1493.992554,334.553101 1496.049194,336.502472 1498.500000,338.000000 
"/>
<path fill="none" opacity="1.000000" stroke="#000000" stroke-linecap="round" stroke-linejoin="round" stroke-width="6.000000"
	d="
M1226.500000,911.500000 
	C1205.627075,914.323059 1186.450562,922.602173 1167.000000,930.000000 
"/>
<path fill="none" opacity="1.000000" stroke="#000000" stroke-linecap="round" stroke-linejoin="round" stroke-width="8.000000"
	d="
M1035.500000,609.000000 
	C1037.142944,620.600586 1043.854980,628.811157 1052.981812,635.524780 
	C1061.041260,641.453247 1069.667603,646.504822 1077.944336,652.082642 
	C1086.216431,657.657410 1095.111206,661.088989 1104.989746,660.361267 
	C1114.572754,659.655334 1121.539185,655.428833 1124.502197,646.500732 
	C1127.158447,638.497314 1128.882568,629.991211 1132.803955,622.662659 
	C1135.883179,616.908142 1136.521240,610.838013 1138.447632,604.982727 
	C1140.430786,598.953857 1142.158203,592.847229 1143.063843,586.509094 
	C1143.804077,581.326416 1143.331909,576.165894 1143.455811,570.998962 
	C1143.501343,569.093323 1142.747559,566.782776 1140.517822,567.118591 
	C1136.289551,567.755554 1132.261597,564.293030 1127.930420,566.883728 
	C1126.899170,567.500610 1125.000000,566.666626 1123.500000,566.500000 
"/>
<path fill="none" opacity="1.000000" stroke="#000000" stroke-linecap="round" stroke-linejoin="round" stroke-width="6.000000"
	d="
M1114.500000,510.000000 
	C1116.826660,495.882935 1108.979736,485.818634 1098.486938,479.521667 
	C1090.823486,474.922546 1082.283203,473.226807 1073.500000,472.500000 
"/>
<path fill="none" opacity="1.000000" stroke="#000000" stroke-linecap="round" stroke-linejoin="round" stroke-width="6.000000"
	d="
M554.500000,836.500000 
	C552.038269,843.679688 547.348389,849.645325 543.352295,855.905762 
	C538.476379,863.544556 536.457825,871.874329 535.058228,880.509460 
	C534.621216,883.205505 534.201050,885.715149 532.543701,888.031250 
	C529.796753,891.870056 531.744812,901.754944 534.862671,905.126953 
	C536.551208,906.953125 539.127380,904.348145 540.000000,907.000000 
"/>
<path fill="none" opacity="1.000000" stroke="#000000" stroke-linecap="round" stroke-linejoin="round" stroke-width="6.000000"
	d="
M807.500000,1390.500000 
	C802.500000,1389.000000 797.470886,1387.589844 792.506348,1385.980469 
	C783.377502,1383.021118 774.255127,1380.060425 765.048889,1377.334839 
	C761.676453,1376.336426 758.740540,1375.763428 755.500000,1377.000000 
"/>
<path fill="none" opacity="1.000000" stroke="#000000" stroke-linecap="round" stroke-linejoin="round" stroke-width="7.000000"
	d="
M1050.500000,455.500000 
	C1045.277100,459.280487 1038.794189,459.388214 1033.002686,461.507355 
	C1021.713318,465.638245 1010.754089,470.369110 1002.000000,479.000000 
"/>
<path fill="none" opacity="1.000000" stroke="#000000" stroke-linecap="round" stroke-linejoin="round" stroke-width="8.000000"
	d="
M1218.000000,1410.000000 
	C1212.524780,1411.738403 1208.825806,1416.434692 1203.519531,1418.548950 
	C1193.844238,1422.403931 1184.224854,1426.046631 1173.485474,1423.562744 
	C1171.915894,1423.199707 1170.103149,1423.198730 1168.500000,1424.000000 
"/>
<path fill="none" opacity="1.000000" stroke="#000000" stroke-linecap="round" stroke-linejoin="round" stroke-width="6.000000"
	d="
M1147.000000,553.500000 
	C1139.715576,552.047729 1133.497559,554.963196 1128.097412,559.126404 
	C1123.535645,562.643250 1125.322876,568.293945 1125.873779,572.985474 
	C1126.741455,580.373474 1128.275879,587.695862 1129.787842,594.992126 
	C1131.445435,602.990295 1126.875122,604.353088 1121.003540,605.031189 
	C1117.151123,605.476135 1113.333374,603.605652 1109.500000,605.000000 
"/>
<path fill="none" opacity="1.000000" stroke="#000000" stroke-linecap="round" stroke-linejoin="round" stroke-width="6.000000"
	d="
M1081.000000,501.500000 
	C1078.344849,497.203156 1074.205444,496.224487 1069.502930,495.950317 
	C1058.991821,495.337463 1049.119141,498.677795 1039.000000,500.500000 
"/>
<path fill="none" opacity="1.000000" stroke="#000000" stroke-linecap="round" stroke-linejoin="round" stroke-width="8.000000"
	d="
M1020.500000,480.500000 
	C1016.575684,479.530121 1012.788330,481.599152 1010.688721,483.689545 
	C1000.693054,493.641449 992.304443,504.801697 988.900269,518.976074 
	C988.522827,520.547913 988.668640,522.001648 988.522278,523.502197 
	C988.239502,526.401184 988.731812,529.258606 992.018799,529.904358 
	C995.085693,530.506836 995.366638,527.366638 996.500000,525.500000 
"/>
<path fill="none" opacity="1.000000" stroke="#000000" stroke-linecap="round" stroke-linejoin="round" stroke-width="7.000000"
	d="
M1147.000000,523.500000 
	C1152.932007,521.699036 1154.307617,516.337585 1155.918091,511.472900 
	C1158.200073,504.579865 1157.448364,497.460022 1155.914795,490.518829 
	C1155.262817,487.568848 1153.242676,484.973541 1149.989502,484.589233 
	C1146.642456,484.193817 1145.242798,481.835999 1144.059692,479.470123 
	C1139.182739,469.717133 1131.911865,462.321899 1122.474121,457.046417 
	C1119.918945,455.618164 1117.371338,453.612457 1113.968872,454.918915 
	C1113.354126,455.154938 1112.039185,454.567719 1111.553223,453.957611 
	C1109.852051,451.822449 1107.620850,452.516541 1105.500000,452.500000 
"/>
<path fill="none" opacity="1.000000" stroke="#000000" stroke-linecap="round" stroke-linejoin="round" stroke-width="8.000000"
	d="
M1435.500000,1021.000000 
	C1426.675171,1020.187866 1417.980835,1020.083435 1409.470581,1023.424988 
	C1403.889893,1025.616211 1399.295532,1029.401733 1394.000000,1032.000000 
"/>
<path fill="none" opacity="1.000000" stroke="#000000" stroke-linecap="round" stroke-linejoin="round" stroke-width="7.000000"
	d="
M994.500000,1275.500000 
	C994.833313,1272.833374 994.604248,1269.927368 995.615906,1267.549316 
	C997.789795,1262.438721 1004.459595,1262.666504 1008.960815,1268.032837 
	C1013.356873,1273.273682 1016.248230,1279.340820 1018.051453,1285.986084 
	C1019.352539,1290.780762 1020.682495,1295.492554 1019.500000,1300.500000 
"/>
<path fill="none" opacity="1.000000" stroke="#000000" stroke-linecap="round" stroke-linejoin="round" stroke-width="7.000000"
	d="
M1112.500000,555.500000 
	C1108.756470,556.307434 1105.893677,553.639832 1102.535278,552.849915 
	C1091.803467,550.325989 1081.589600,551.644714 1071.500000,555.500000 
"/>
<path fill="none" opacity="1.000000" stroke="#000000" stroke-linecap="round" stroke-linejoin="round" stroke-width="7.000000"
	d="
M1149.000000,485.000000 
	C1147.125610,488.828217 1147.882446,493.006775 1147.599854,497.007050 
	C1147.246582,502.008728 1144.537354,505.744507 1141.331787,508.824890 
	C1139.612183,510.477173 1136.200073,510.630707 1133.492676,510.935394 
	C1128.518188,511.495209 1123.389404,512.450928 1118.533081,511.765808 
	C1114.209717,511.155884 1109.713013,510.376556 1105.522705,508.934174 
	C1098.429077,506.492493 1090.863647,505.683105 1083.984863,502.533020 
	C1083.095093,502.125580 1081.767578,501.704468 1081.036255,502.072144 
	C1074.347534,505.434692 1065.458496,505.812988 1062.607788,514.535217 
	C1061.616821,517.567200 1059.218384,516.595520 1057.493652,517.487732 
	C1051.700073,520.484802 1045.673340,522.570984 1038.999634,522.004944 
	C1036.668823,521.807251 1034.279785,521.924683 1032.009766,521.453064 
	C1024.271240,519.845398 1016.780762,520.367126 1009.500000,523.500000 
"/>
<path fill="none" opacity="1.000000" stroke="#000000" stroke-linecap="round" stroke-linejoin="round" stroke-width="8.000000"
	d="
M603.000000,794.000000 
	C604.499451,796.024719 606.907898,796.823059 609.028381,797.394653 
	C618.905762,800.056824 626.129822,805.692566 630.543945,814.979126 
	C631.405151,816.790955 632.833374,818.333313 634.000000,820.000000 
"/>
<path fill="none" opacity="1.000000" stroke="#000000" stroke-linecap="round" stroke-linejoin="round" stroke-width="6.000000"
	d="
M1454.000000,1080.500000 
	C1456.632080,1089.622681 1460.314575,1098.441650 1462.759155,1107.564575 
	C1464.498901,1114.057129 1464.836670,1121.185181 1463.835815,1127.975830 
	C1463.344604,1131.308716 1464.369141,1133.574341 1466.000000,1136.000000 
"/>
<path fill="none" opacity="1.000000" stroke="#000000" stroke-linecap="round" stroke-linejoin="round" stroke-width="6.000000"
	d="
M1100.000000,1034.000000 
	C1099.333374,1033.500000 1098.738281,1032.807983 1097.989258,1032.528809 
	C1085.546387,1027.889771 1078.630249,1017.336792 1070.953491,1007.536499 
	C1068.447998,1004.337830 1066.438477,1000.665894 1063.000000,998.250000 
"/>
<path fill="none" opacity="1.000000" stroke="#000000" stroke-linecap="round" stroke-linejoin="round" stroke-width="6.000000"
	d="
M756.500000,707.500000 
	C757.520020,714.196533 760.896667,720.199829 761.936462,726.971375 
	C762.581116,731.169067 761.752869,735.416382 763.000000,739.500000 
"/>
<path fill="none" opacity="1.000000" stroke="#000000" stroke-linecap="round" stroke-linejoin="round" stroke-width="6.000000"
	d="
M1130.500000,479.500000 
	C1131.524292,486.500000 1133.063354,493.395630 1130.627319,500.543396 
	C1129.380371,504.202148 1126.235596,506.701172 1125.500000,510.500000 
"/>
<path fill="none" opacity="1.000000" stroke="#000000" stroke-linecap="round" stroke-linejoin="round" stroke-width="6.000000"
	d="
M1464.500122,1075.500000 
	C1467.166748,1083.666626 1469.891357,1091.815063 1472.462036,1100.011963 
	C1473.156738,1102.226807 1474.140381,1104.107666 1476.000000,1105.500000 
"/>
<path fill="none" opacity="1.000000" stroke="#000000" stroke-linecap="round" stroke-linejoin="round" stroke-width="8.000000"
	d="
M1141.000000,510.000000 
	C1144.510010,516.737732 1147.007446,523.633118 1146.637207,531.506470 
	C1146.444092,535.616333 1146.986084,539.935547 1147.690430,543.966736 
	C1149.219849,552.719177 1147.214844,560.315186 1142.500000,567.500000 
"/>
<path fill="none" opacity="1.000000" stroke="#000000" stroke-linecap="round" stroke-linejoin="round" stroke-width="6.000000"
	d="
M1068.500000,965.500000 
	C1060.837646,959.161377 1053.885864,951.962585 1045.499512,946.500671 
	C1043.981201,945.511780 1042.730957,943.619080 1040.500000,945.000000 
"/>
<path fill="none" opacity="1.000000" stroke="#000000" stroke-linecap="round" stroke-linejoin="round" stroke-width="8.000000"
	d="
M1895.500000,1302.500000 
	C1881.333374,1301.666626 1867.164795,1300.862793 1853.002075,1299.967407 
	C1850.955078,1299.837891 1850.163330,1300.496704 1850.500000,1302.500000 
"/>
<path fill="none" opacity="1.000000" stroke="#000000" stroke-linecap="round" stroke-linejoin="round" stroke-width="6.000000"
	d="
M939.500000,1374.500000 
	C940.905151,1375.201172 939.536377,1376.172241 939.628418,1377.013306 
	C940.726135,1387.041260 939.360901,1392.151611 927.500000,1394.500000 
"/>
<path fill="none" opacity="1.000000" stroke="#000000" stroke-linecap="round" stroke-linejoin="round" stroke-width="6.000000"
	d="
M826.500000,1407.500000 
	C820.440002,1409.561401 814.345398,1411.409058 808.029541,1412.650269 
	C805.404785,1413.166138 803.345642,1411.994751 801.000000,1412.000000 
"/>
<path fill="none" opacity="1.000000" stroke="#000000" stroke-linecap="round" stroke-linejoin="round" stroke-width="6.000000"
	d="
M1341.500000,843.000000 
	C1338.318115,842.469482 1336.496704,844.955566 1334.567871,846.580627 
	C1328.732422,851.496826 1322.664185,856.373108 1321.000000,864.500000 
"/>
<path fill="none" opacity="1.000000" stroke="#000000" stroke-linecap="round" stroke-linejoin="round" stroke-width="8.000000"
	d="
M1601.000000,589.000000 
	C1602.214966,598.147583 1601.068604,607.332642 1601.409424,616.503357 
	C1601.687622,623.986816 1601.273804,631.504700 1600.942993,638.997498 
	C1600.824707,641.679871 1602.368530,644.333313 1601.000000,647.000000 
"/>
<path fill="none" opacity="1.000000" stroke="#000000" stroke-linecap="round" stroke-linejoin="round" stroke-width="8.000000"
	d="
M1599.500000,646.750000 
	C1602.720825,647.526978 1601.623535,650.206848 1601.411865,651.989502 
	C1600.421387,660.325989 1601.676880,668.676880 1601.000000,677.000000 
"/>
<path fill="none" opacity="1.000000" stroke="#000000" stroke-linecap="round" stroke-linejoin="round" stroke-width="6.000000"
	d="
M769.500000,705.500000 
	C769.382141,712.936646 770.929688,720.054626 773.402466,727.034546 
	C773.605042,727.606262 774.815979,728.666687 773.500000,729.500000 
"/>
<path fill="none" opacity="1.000000" stroke="#000000" stroke-linecap="round" stroke-linejoin="round" stroke-width="7.000000"
	d="
M1152.750000,1516.000000 
	C1147.736816,1522.589478 1143.326660,1529.459961 1142.500000,1538.000000 
"/>
<path fill="none" opacity="1.000000" stroke="#000000" stroke-linecap="round" stroke-linejoin="round" stroke-width="6.000000"
	d="
M1166.500000,1517.500000 
	C1166.896362,1518.948120 1165.771484,1519.604614 1165.015503,1520.512939 
	C1160.680542,1525.720459 1158.922729,1531.951416 1158.000000,1538.500000 
"/>
<path fill="none" opacity="1.000000" stroke="#000000" stroke-linecap="round" stroke-linejoin="round" stroke-width="6.000000"
	d="
M1093.500000,621.500000 
	C1101.596436,623.292419 1109.790649,623.171326 1118.000000,622.749084 
	C1119.500244,622.671936 1121.000000,622.583313 1122.500000,622.500000 
"/>
<path fill="none" opacity="1.000000" stroke="#000000" stroke-linecap="round" stroke-linejoin="round" stroke-width="8.000000"
	d="
M944.500000,1315.500000 
	C935.577271,1323.349121 924.717712,1327.175293 913.477905,1329.909180 
	C906.564819,1331.590820 899.408081,1330.726318 892.549377,1329.267944 
	C890.680603,1328.870483 888.822876,1328.890991 887.000000,1328.500000 
"/>
<path fill="none" opacity="1.000000" stroke="#000000" stroke-linecap="round" stroke-linejoin="round" stroke-width="6.000000"
	d="
M900.500000,1160.500000 
	C900.273743,1162.383057 901.226318,1162.842163 902.934509,1163.640137 
	C907.453979,1165.751465 912.625061,1165.145630 917.000000,1167.500000 
"/>
<path fill="none" opacity="1.000000" stroke="#000000" stroke-linecap="round" stroke-linejoin="round" stroke-width="6.000000"
	d="
M1183.000000,1519.250000 
	C1175.706543,1526.695923 1174.724731,1528.630615 1174.500000,1536.000000 
"/>
<path fill="none" opacity="1.000000" stroke="#000000" stroke-linecap="round" stroke-linejoin="round" stroke-width="6.000000"
	d="
M1129.500000,1163.500000 
	C1129.396362,1164.619385 1129.848511,1165.255371 1130.996948,1165.513672 
	C1136.048340,1166.649536 1140.803589,1168.903442 1146.000000,1169.500000 
"/>
<path fill="none" opacity="1.000000" stroke="#000000" stroke-linecap="round" stroke-linejoin="round" stroke-width="6.000000"
	d="
M1132.250000,1148.000000 
	C1136.507568,1153.701782 1141.620605,1158.503906 1147.500000,1162.500000 
"/>
<path fill="none" opacity="1.000000" stroke="#000000" stroke-linecap="round" stroke-linejoin="round" stroke-width="6.000000"
	d="
M1341.500000,854.500000 
	C1341.349365,855.752441 1341.337402,856.547485 1339.905029,857.693787 
	C1335.983521,860.832092 1332.593872,864.737305 1330.500000,869.500000 
"/>
<path fill="none" opacity="1.000000" stroke="#000000" stroke-linecap="round" stroke-linejoin="round" stroke-width="7.000000"
	d="
M916.000000,1174.500000 
	C910.567383,1174.802734 905.499573,1176.519043 900.500000,1178.500000 
"/>
<path fill="none" opacity="1.000000" stroke="#000000" stroke-linecap="round" stroke-linejoin="round" stroke-width="6.000000"
	d="
M1020.500000,560.500000 
	C1022.500244,563.491211 1024.167725,566.072876 1021.730347,570.138123 
	C1020.203308,572.684937 1022.873474,575.887817 1024.500000,578.500000 
"/>
<path fill="none" opacity="1.000000" stroke="#000000" stroke-linecap="round" stroke-linejoin="round" stroke-width="5.000000"
	d="
M1100.500000,564.500000 
	C1097.005737,564.213989 1093.587158,565.754395 1089.939819,564.135498 
	C1087.233521,562.934265 1084.436646,565.585693 1081.500000,565.500000 
"/>
<path fill="none" opacity="1.000000" stroke="#000000" stroke-linecap="round" stroke-linejoin="round" stroke-width="6.000000"
	d="
M1116.000000,634.000000 
	C1112.147949,634.264526 1108.252075,635.534546 1104.500000,633.500000 
"/>
<path fill="none" opacity="1.000000" stroke="#000000" stroke-linecap="round" stroke-linejoin="round" stroke-width="8.000000"
	d="
M1009.500000,484.000000 
	C1004.455505,480.217896 998.807739,478.487030 992.500000,479.000000 
"/>
<path fill="none" opacity="1.000000" stroke="#000000" stroke-linecap="round" stroke-linejoin="round" stroke-width="3.000000"
	d="
M1151.000000,476.500000 
	C1151.096069,479.057251 1150.705200,481.549591 1150.000000,484.000000 
"/>
<path fill="none" opacity="1.000000" stroke="#000000" stroke-linecap="round" stroke-linejoin="round" stroke-width="6.000000"
	d="
M1147.500000,1177.500000 
	C1141.551270,1180.935913 1134.851196,1179.613159 1128.500000,1180.500000 
"/>
<path fill="none" opacity="1.000000" stroke="#000000" stroke-linecap="round" stroke-linejoin="round" stroke-width="7.000000"
	d="
M379.500000,1100.000000 
	C374.349518,1103.014771 372.668243,1109.666382 376.040375,1114.974365 
	C379.800323,1120.892578 385.138947,1125.316528 391.070190,1128.883301 
	C392.605408,1129.806396 394.867462,1130.818481 397.002075,1129.503418 
	C399.391785,1128.031006 398.378601,1125.952881 397.995544,1124.000854 
	C396.103027,1114.357056 393.180328,1105.322144 383.478271,1100.544189 
	C382.473267,1100.049072 381.166687,1100.166626 380.000000,1099.999878 
"/>
</svg>