<svg version="1.1" id="Layer_1" xmlns="http://www.w3.org/2000/svg" xmlns:xlink="http://www.w3.org/1999/xlink" x="0px" y="0px"
	 width="100%" viewBox="0 0 1024 1024" enable-background="new 0 0 1024 1024" xml:space="preserve">
<path fill="#000000" opacity="1.000000" stroke="none" 
	d="
M377.048096,365.987549 
	C408.179016,347.962921 441.381470,337.134094 476.525726,331.976715 
	C478.668610,331.662201 481.358887,332.167664 481.673431,328.612366 
	C481.974548,325.209106 480.050354,323.966644 477.375183,322.829498 
	C453.089111,312.505951 436.355927,294.847626 426.880524,270.304535 
	C407.807770,220.902405 440.549042,161.946411 492.514893,151.607056 
	C534.666992,143.220291 569.601562,160.264694 590.078979,190.817566 
	C620.654907,236.437668 602.244263,299.321045 551.952026,321.383698 
	C550.579102,321.985992 549.238586,322.688721 547.820923,323.156464 
	C545.167603,324.031891 544.297974,325.844604 544.395020,328.519806 
	C544.510254,331.696594 546.802795,331.606903 548.948425,331.902985 
	C579.733887,336.151184 609.041809,345.159546 636.719971,359.326355 
	C639.670654,360.836639 641.586853,360.547028 643.315491,357.637787 
	C646.122986,352.912781 649.085449,348.276886 652.085815,343.670685 
	C653.545959,341.428925 653.650757,339.698029 651.679749,337.506470 
	C647.493164,332.851318 647.408203,327.330933 650.372498,322.189880 
	C654.027161,315.851624 658.137878,309.744598 662.444153,303.823151 
	C666.369385,298.425537 673.093933,296.975281 678.971863,300.602081 
	C692.297791,308.824463 705.473083,317.305969 718.475952,326.030334 
	C724.296692,329.935791 725.484863,336.828278 721.894714,342.871521 
	C718.237427,349.027771 714.340515,355.048950 710.363647,361.005798 
	C707.182495,365.770782 702.575012,367.874939 696.972351,366.311066 
	C693.931763,365.462372 692.441040,366.339417 690.967285,368.851044 
	C688.102234,373.733856 685.042908,378.508575 681.908875,383.224915 
	C680.470764,385.389008 680.351562,386.959778 682.524841,388.758606 
	C687.785522,393.112915 693.099060,397.438324 698.007996,402.172852 
	C702.788147,406.783203 707.091980,411.887421 711.939697,417.137238 
	C718.698547,412.036133 724.509338,407.654236 730.315613,403.266296 
	C732.186157,401.852661 731.603760,400.204651 730.997314,398.342010 
	C728.949341,392.051453 730.368958,387.440979 735.577393,383.381470 
	C740.571167,379.489380 745.587830,375.618927 750.726074,371.921875 
	C757.797791,366.833710 765.511353,367.735718 770.706543,374.322052 
	C779.270325,385.178925 787.797607,396.068268 796.132385,407.100952 
	C803.040588,416.245300 801.972168,422.855865 792.876099,429.664001 
	C788.075256,433.257294 783.277283,436.857208 778.400024,440.345001 
	C773.515320,443.838074 768.389709,443.984589 763.561218,440.416565 
	C761.404846,438.823181 759.977417,438.857697 757.954102,440.460388 
	C753.514954,443.976685 748.959717,447.354828 744.338135,450.628845 
	C741.940125,452.327637 741.680298,453.830414 743.339783,456.363739 
	C762.566345,485.713989 775.149902,517.766846 781.661865,552.189575 
	C789.849731,595.471741 787.832397,638.298462 775.167664,680.529846 
	C761.478394,726.177490 737.472595,765.741516 703.318359,798.838623 
	C664.075378,836.866943 617.573914,861.751892 563.775330,872.191589 
	C502.323608,884.116516 443.785828,874.909241 388.430298,846.045959 
	C341.490448,821.570618 304.499084,786.373535 277.552826,740.723328 
	C258.161194,707.871582 245.909714,672.585144 241.607773,634.639465 
	C234.636795,573.151245 246.968918,515.791077 278.801025,462.693481 
	C303.133179,422.106232 336.116974,390.258392 377.048096,365.987549 
M619.584229,359.002075 
	C572.967285,338.435516 524.278076,332.158325 474.094208,339.611359 
	C413.132538,348.665070 361.570221,376.393768 319.368835,421.228088 
	C285.634033,457.067627 263.208282,499.046326 252.673813,547.238770 
	C245.007721,582.309143 244.311127,617.468750 251.375610,652.722717 
	C262.047241,705.977844 286.711792,751.906799 324.646301,790.555664 
	C348.080536,814.431091 375.324890,833.135559 405.922852,846.891724 
	C452.719330,867.930542 501.728668,875.918396 552.181580,867.177551 
	C642.283020,851.567932 708.886353,802.197815 751.113892,721.166748 
	C775.083252,675.171570 783.719177,625.818848 777.874207,574.047058 
	C774.190491,541.418274 765.204956,510.412292 749.801025,481.456970 
	C720.413818,426.216614 677.412292,385.218262 619.584229,359.002075 
M463.659882,236.673660 
	C463.881561,225.902786 469.010315,220.692703 479.635468,220.667648 
	C502.129364,220.614624 524.623474,220.612106 547.117432,220.643555 
	C556.850159,220.657166 562.297607,226.078415 562.345276,235.729813 
	C562.394653,245.726929 562.367310,255.724457 562.360352,265.721802 
	C562.352234,277.396454 559.582214,280.851013 548.241882,282.937103 
	C545.984741,283.352325 544.422668,283.970245 544.434082,286.554108 
	C544.450806,290.341248 544.438416,294.128571 544.438416,298.140808 
	C564.813416,289.948608 584.961609,263.652771 580.379333,231.316437 
	C575.583801,197.475616 547.547974,173.362534 513.905762,173.145706 
	C478.603699,172.918213 451.398254,196.339005 445.833038,232.879837 
	C441.878082,258.848053 457.568481,287.527161 481.643677,298.107483 
	C481.643677,294.556580 481.490265,291.292664 481.685272,288.049652 
	C481.894714,284.567596 480.761353,283.097412 477.005524,282.729584 
	C468.410309,281.887817 463.735443,276.348785 463.678467,267.624176 
	C463.613190,257.627228 463.659271,247.629562 463.659882,236.673660 
M587.918823,233.003128 
	C590.728149,262.583954 575.833557,290.538025 550.056091,304.063538 
	C543.729858,307.382935 543.277039,308.491913 545.227539,315.888458 
	C574.662476,306.525208 603.207581,270.213135 596.818054,227.595001 
	C590.569214,185.915375 551.428711,153.716202 508.210907,156.477142 
	C460.297150,159.538132 429.898560,199.623337 428.813782,237.523285 
	C427.672333,277.403625 457.413971,309.482605 481.160828,315.706940 
	C482.436554,307.642639 482.233612,307.100067 476.861694,304.213440 
	C449.547455,289.536041 434.959839,261.232361 438.815826,230.394684 
	C443.271210,194.763779 474.358826,166.767563 510.528198,165.813568 
	C550.138367,164.768814 582.447144,192.520584 587.918823,233.003128 
M488.341522,319.458374 
	C488.347717,321.787415 488.454956,324.121674 488.335815,326.444275 
	C488.168060,329.713745 489.359314,330.720428 492.776733,330.399536 
	C506.213257,329.137909 519.697266,329.298767 533.137878,330.282990 
	C536.870789,330.556366 537.762268,329.516113 537.725586,326.058533 
	C537.589783,313.250183 537.590393,300.438843 537.710815,287.630249 
	C537.742981,284.208221 536.539368,282.885529 533.067139,282.920807 
	C519.759583,283.056061 506.449402,283.081116 493.141785,282.964722 
	C489.405121,282.932068 488.242676,284.432648 488.299530,288.029510 
	C488.459900,298.174866 488.347931,308.324554 488.341522,319.458374 
M667.648560,309.072784 
	C664.316650,314.046936 660.946411,318.995941 657.663269,324.002106 
	C654.199463,329.283630 654.412659,331.049561 659.745911,334.596893 
	C671.657166,342.519592 683.721008,350.212463 695.689636,358.049561 
	C699.328979,360.432617 702.230774,359.861237 704.589966,356.248169 
	C707.955505,351.094055 711.376709,345.975433 714.676575,340.779663 
	C717.589905,336.192535 717.113586,333.376587 712.430237,330.312714 
	C700.737427,322.663177 688.934387,315.180908 677.128845,307.705353 
	C674.020569,305.737122 670.875549,305.462555 667.648560,309.072784 
M783.717468,402.759155 
	C777.831055,395.102753 772.038940,387.371246 766.023438,379.817566 
	C762.316345,375.162537 759.258667,374.890594 754.439392,378.402496 
	C749.865845,381.735352 745.433167,385.262970 740.832214,388.556396 
	C736.854797,391.403473 736.571655,394.412323 739.567200,398.220001 
	C748.625244,409.733643 757.565674,421.339905 766.543213,432.916779 
	C769.059937,436.162201 771.901184,436.514160 775.169983,434.033447 
	C780.076538,430.309875 784.981812,426.583252 789.946472,422.938080 
	C793.640015,420.226166 793.860535,416.844238 791.597473,413.337494 
	C789.346680,409.849762 786.647766,406.651184 783.717468,402.759155 
M648.081970,363.750214 
	C648.155151,364.224854 648.057068,364.958496 648.326355,365.136597 
	C656.749329,370.705994 665.208191,376.221252 674.162170,382.071930 
	C678.250000,375.640900 682.061890,369.633820 685.886047,363.634491 
	C686.903015,362.039062 686.476685,360.787750 684.995361,359.814331 
	C677.102844,354.627930 669.200806,349.455872 660.752441,343.918610 
	C656.387634,350.658020 652.341370,356.905579 648.081970,363.750214 
M734.964233,408.762726 
	C730.157837,412.340363 725.368652,415.941437 720.535645,419.482758 
	C718.870361,420.703003 717.730896,421.994507 719.325134,423.985229 
	C725.335632,431.490845 731.376953,438.971771 737.736572,446.871704 
	C744.112793,442.036133 750.264160,437.371033 756.870911,432.360565 
	C750.528076,424.177673 744.536011,416.442596 738.537048,408.712921 
	C737.651123,407.571472 736.605530,407.575653 734.964233,408.762726 
M530.643127,265.423645 
	C530.625183,254.276917 530.561890,243.129944 530.619507,231.983597 
	C530.634949,228.993378 529.879456,227.345428 526.415833,227.371170 
	C522.994934,227.396606 522.233093,228.953644 522.257629,231.990799 
	C522.363770,245.133240 522.361267,258.277100 522.292542,271.419922 
	C522.277893,274.232605 522.972473,275.759033 526.183167,275.738739 
	C529.322693,275.718933 530.892334,274.680481 530.654663,271.383636 
	C530.535400,269.728882 530.642456,268.057831 530.643127,265.423645 
M509.156555,247.500702 
	C509.173859,255.477798 509.239471,263.455231 509.182312,271.431824 
	C509.162292,274.217712 509.906616,275.800323 513.119324,275.723206 
	C516.023438,275.653534 516.825073,274.264252 516.816345,271.673218 
	C516.771362,258.378174 516.768738,245.082916 516.802185,231.787842 
	C516.809082,229.054306 516.080505,227.354111 512.872681,227.405914 
	C509.546753,227.459656 509.159821,229.471817 509.172089,232.042816 
	C509.195068,236.862137 509.164520,241.681702 509.156555,247.500702 
M482.345856,230.500687 
	C482.333069,244.128464 482.356934,257.756439 482.276855,271.383820 
	C482.260620,274.148926 482.871002,275.767670 486.124390,275.728668 
	C489.317352,275.690430 490.072632,274.064728 490.061035,271.328552 
	C490.005402,258.199432 490.021973,245.070007 489.959473,231.940948 
	C489.951965,230.362686 490.409271,228.148331 488.258514,227.772675 
	C486.175201,227.408783 483.484589,226.536102 482.345856,230.500687 
M503.652435,268.300262 
	C503.650177,256.336212 503.611786,244.371979 503.673096,232.408249 
	C503.687042,229.684601 503.083038,227.884354 499.866089,227.933090 
	C497.120178,227.974716 495.947754,229.293091 495.948395,231.921722 
	C495.951721,245.214310 495.950775,258.506897 495.940765,271.799469 
	C495.938812,274.414185 496.981232,275.738861 499.826202,275.705627 
	C502.660858,275.672516 503.722565,274.371216 503.615936,271.725220 
	C503.582520,270.896362 503.633881,270.064056 503.652435,268.300262 
M543.660034,252.500000 
	C543.654663,245.863754 543.616150,239.227280 543.660828,232.591370 
	C543.678101,230.021103 543.382629,227.970245 540.039856,227.945511 
	C536.950256,227.922653 536.005859,229.494461 536.013733,232.286316 
	C536.050476,245.392517 536.037537,258.498901 536.023499,271.605194 
	C536.020813,274.094604 536.705505,275.683472 539.678467,275.708557 
	C542.807495,275.734924 543.701355,274.244354 543.663513,271.417328 
	C543.583740,265.445923 543.652161,259.472473 543.660034,252.500000 
M472.615753,273.651062 
	C473.649506,274.429535 474.567963,275.542572 476.323547,274.806488 
	C476.323547,259.530518 476.323547,244.211304 476.323547,228.390533 
	C472.066193,229.541153 470.558746,232.267380 470.503571,235.542053 
	C470.318268,246.534149 470.416718,257.531006 470.400513,268.526031 
	C470.397949,270.274750 471.057037,271.763428 472.615753,273.651062 
M555.640808,263.313965 
	C555.636475,254.501114 555.700317,245.687439 555.595642,236.875778 
	C555.551270,233.139404 554.888123,229.592438 549.814575,228.702011 
	C549.814575,244.398987 549.814575,259.777252 549.814575,275.534393 
	C556.162292,273.437622 555.596008,268.697845 555.640808,263.313965 
z"/>
<path fill="#000000" opacity="1.000000" stroke="none" 
	d="
M355.164001,203.236908 
	C316.656738,221.498291 282.835327,245.705643 253.226974,275.812866 
	C250.658966,278.424164 248.310455,281.250488 245.764938,283.885101 
	C244.327255,285.373138 242.702682,287.867889 240.452881,285.718323 
	C238.538986,283.889709 240.608887,282.067230 241.842575,280.577026 
	C251.743515,268.617584 262.625671,257.604767 274.210175,247.283096 
	C316.126434,209.936157 364.633179,184.680771 418.260132,168.831894 
	C419.218262,168.548737 420.169861,168.238098 421.138855,167.998047 
	C423.211731,167.484543 425.133514,167.579453 426.470306,169.567520 
	C427.735138,171.448639 426.812836,173.118454 425.796722,174.653625 
	C421.560364,181.054123 417.646759,187.631104 414.566895,194.675934 
	C400.386993,227.110565 400.389221,259.226044 416.941681,290.874969 
	C423.589813,303.586548 423.655090,303.336975 410.005707,307.475128 
	C383.420685,315.535034 359.208435,328.233795 337.343811,345.386658 
	C336.819733,345.797791 336.308685,346.228699 335.761017,346.606110 
	C334.140594,347.722900 332.193573,349.624908 330.539093,347.587128 
	C328.827026,345.478394 331.275177,343.955811 332.652954,342.712799 
	C353.421631,323.975922 377.073425,309.937561 403.036957,299.682037 
	C404.845612,298.967651 406.982269,298.817322 408.517883,296.586823 
	C405.212799,288.708405 401.360138,280.782074 398.800354,272.348907 
	C397.744537,268.870514 395.157959,270.827423 393.436676,271.485535 
	C380.516693,276.425201 367.904053,282.046631 355.709351,288.615234 
	C326.314117,304.448792 301.160431,325.492950 279.161163,350.468201 
	C278.019623,351.764099 277.099670,353.613800 274.252991,353.292694 
	C274.612335,349.076385 277.171295,346.014191 279.514801,343.040253 
	C302.011230,314.492615 329.605560,292.067047 361.593781,274.929626 
	C371.297638,269.730896 381.179413,264.956055 391.553497,261.237091 
	C393.578339,260.511230 396.086487,259.954559 395.606689,257.044250 
	C394.085510,247.817200 394.919830,238.484695 394.498383,228.607544 
	C386.138794,230.758423 378.824371,234.327667 371.513672,237.700882 
	C301.920197,269.811981 248.714203,319.036224 214.890930,388.353699 
	C212.263947,393.737396 210.039719,399.316742 207.574982,404.781097 
	C206.771332,406.562805 206.008148,409.035950 203.401306,407.856354 
	C200.958939,406.751251 202.551025,404.658173 203.142639,403.078552 
	C212.013184,379.394104 223.953903,357.337769 238.487671,336.664093 
	C277.098114,281.742401 328.455933,243.194275 390.559814,218.561432 
	C394.900024,216.839951 397.329346,214.509781 398.338745,209.966003 
	C400.398865,200.692383 404.501007,192.114182 408.745636,182.564667 
	C389.894043,188.189850 372.598175,195.362991 355.164001,203.236908 
z"/>
<path fill="#000000" opacity="1.000000" stroke="none" 
	d="
M786.121338,324.859894 
	C748.804443,279.457336 701.885986,249.491745 644.445435,233.057922 
	C645.961609,235.526917 646.803833,236.993607 647.736145,238.400650 
	C652.702698,245.896072 657.658081,253.399338 662.689453,260.851196 
	C664.767944,263.929535 665.903137,267.191925 662.319031,269.575073 
	C659.041687,271.754211 656.378723,269.808563 654.404785,266.841034 
	C646.012695,254.224792 637.535522,241.664703 629.218323,228.999481 
	C626.080933,224.221970 627.091003,220.900909 632.184570,218.595856 
	C645.834717,212.418533 659.524414,206.328476 673.201050,200.209717 
	C673.960266,199.870056 674.736267,199.564026 675.517639,199.278488 
	C678.685974,198.120728 681.219666,199.010193 682.557617,202.062775 
	C683.925659,205.184143 682.059509,207.174240 679.420593,208.413773 
	C670.983154,212.376907 662.496399,216.234802 654.039612,220.156998 
	C652.405151,220.915054 650.820435,221.780228 648.534424,222.940155 
	C656.690369,225.717117 664.244263,228.056839 671.630798,230.840378 
	C738.293457,255.961472 788.378723,300.147095 822.675354,362.437073 
	C824.289062,365.367920 825.686157,368.724274 822.172363,370.818756 
	C818.358154,373.092346 816.120911,370.137543 814.358459,367.008911 
	C806.092590,352.335785 797.096619,338.147980 786.121338,324.859894 
z"/>
<path fill="#000000" opacity="1.000000" stroke="none" 
	d="
M743.848389,661.675293 
	C733.849915,700.016235 715.827026,733.547546 689.390076,762.555969 
	C656.865906,798.243652 617.324280,822.427979 570.583374,834.473877 
	C537.393005,843.027405 503.791443,844.199036 470.121704,837.455444 
	C395.411224,822.492126 340.292358,780.623718 303.181641,714.620178 
	C289.078430,689.536804 280.438232,662.350159 277.012939,633.854492 
	C269.017487,567.338379 285.317841,507.292511 327.436554,454.879425 
	C364.468781,408.795868 412.124939,379.806458 470.432648,369.278870 
	C526.564026,359.144257 579.915039,367.873596 629.581238,396.011780 
	C678.699219,423.839355 714.024414,464.197235 734.969360,516.722900 
	C743.636108,538.457458 748.568726,561.134216 750.485229,584.555420 
	C752.613403,610.564819 750.208801,636.053589 743.848389,661.675293 
M441.971863,383.493988 
	C398.338013,398.135162 361.640533,423.118866 333.112610,459.136169 
	C288.684784,515.227600 272.956451,578.906250 286.942749,649.186279 
	C297.354767,701.505798 323.813660,744.912476 364.398102,779.375305 
	C403.280884,812.393127 448.376160,831.117310 499.397461,834.510315 
	C527.222229,836.360718 554.606201,832.938965 581.188477,824.286133 
	C623.204163,810.609497 659.119385,787.419983 687.672729,753.640991 
	C736.315735,696.095703 753.552795,629.946838 739.210205,556.012390 
	C731.185791,514.647217 712.012207,478.580170 683.367004,447.713715 
	C638.625854,399.503326 583.173645,374.468811 517.496826,372.406860 
	C492.005157,371.606537 467.081482,375.701843 441.971863,383.493988 
z"/>
<path fill="#000000" opacity="1.000000" stroke="none" 
	d="
M486.707397,615.689087 
	C491.468811,612.110413 492.945343,607.817932 492.806671,602.103271 
	C492.528595,590.642090 503.528107,581.359924 514.825806,583.136414 
	C517.717957,583.591187 519.456482,582.809570 521.420410,580.959717 
	C560.325745,544.313110 599.278137,507.716461 638.234009,471.123535 
	C639.565125,469.873138 640.963684,468.670715 642.452881,467.618835 
	C644.027283,466.506714 645.863159,465.858582 647.404358,467.568146 
	C648.886841,469.212555 648.353455,471.053711 647.071899,472.556763 
	C642.751953,477.623352 638.420227,482.682922 633.973267,487.637695 
	C601.282043,524.062256 568.570374,560.468384 535.825928,596.844971 
	C534.155518,598.700745 533.567505,600.543579 533.591614,603.104553 
	C533.712585,615.981018 523.557800,625.032349 510.807892,623.487305 
	C507.687683,623.109253 505.438904,623.798218 503.307617,626.161865 
	C498.068481,631.971985 492.677643,637.649963 487.223328,643.260132 
	C482.516052,648.101868 476.268036,648.634399 472.131134,644.764038 
	C467.689880,640.608948 467.955231,634.590942 473.010834,629.342834 
	C477.400177,624.786377 481.962006,620.396057 486.707397,615.689087 
M525.311157,609.591919 
	C527.823303,604.244812 527.339783,599.101562 523.569153,594.633911 
	C520.282288,590.739502 515.890503,588.711609 510.673737,589.782898 
	C504.072906,591.138550 499.605377,596.345459 499.321930,602.606628 
	C499.053009,608.546997 502.884552,614.181946 508.496063,616.098755 
	C515.080750,618.348022 520.550903,616.399780 525.311157,609.591919 
M555.148193,557.648315 
	C545.221008,567.147339 535.293823,576.646423 525.217468,586.288147 
	C527.378418,588.567688 529.053223,590.334412 531.069763,592.461609 
	C553.575439,567.310852 575.798584,542.475891 598.021729,517.640869 
	C584.167786,531.118591 569.596497,543.802551 555.148193,557.648315 
M486.734680,634.252502 
	C490.159119,630.614075 493.412384,626.792297 497.056183,623.388672 
	C500.705902,619.979553 499.312164,617.983215 494.491547,614.929626 
	C488.552704,621.255249 482.735168,627.663818 476.976807,634.125183 
	C475.575134,635.697937 474.589508,637.528992 476.455627,639.424255 
	C478.392426,641.391235 480.341003,640.902954 482.116638,639.108459 
	C483.522095,637.687988 484.877441,636.218079 486.734680,634.252502 
z"/>
<path fill="#000000" opacity="1.000000" stroke="none" 
	d="
M327.871490,621.896301 
	C329.880981,616.756409 331.078705,616.428223 336.112488,619.246765 
	C345.632080,624.577026 355.054565,619.469727 355.407135,608.387207 
	C351.030365,611.048889 346.396362,611.742615 341.526642,611.366455 
	C333.120911,610.717346 326.667450,604.726257 325.788300,596.639648 
	C324.881805,588.301758 329.608307,581.229858 337.749756,578.742554 
	C350.668823,574.795532 361.530029,581.177856 364.449524,594.380432 
	C366.231903,602.440674 365.541321,610.272705 362.200409,617.793579 
	C356.947754,629.617920 341.441833,633.697510 330.904510,626.131042 
	C329.521851,625.138245 328.383636,623.968018 327.871490,621.896301 
M335.046692,592.407898 
	C334.251770,597.667236 336.483765,601.561279 341.270264,603.265686 
	C345.908783,604.917419 351.563171,603.187805 354.114166,599.343506 
	C356.779846,595.326477 355.670685,591.671570 352.676788,588.549927 
	C347.515808,583.168701 339.337250,584.736694 335.046692,592.407898 
z"/>
<path fill="#000000" opacity="1.000000" stroke="none" 
	d="
M504.920105,758.924438 
	C509.305664,756.352173 513.816467,756.308594 518.301453,756.870483 
	C526.790466,757.933960 532.901245,764.946838 532.848389,773.244385 
	C532.792847,781.966492 526.450867,789.005371 517.565918,790.206299 
	C503.937988,792.048157 494.155243,783.775818 493.652130,769.976562 
	C493.377747,762.451111 493.577759,755.118347 497.523590,748.221802 
	C504.036591,736.838257 518.254700,736.729004 526.434387,741.233093 
	C529.039917,742.667847 531.526367,744.532593 529.714355,747.916016 
	C527.862000,751.374756 525.194031,750.090576 522.466309,748.658630 
	C513.287048,743.839905 504.839752,747.993164 503.021423,757.988098 
	C502.629150,760.144348 503.266357,759.954041 504.920105,758.924438 
M504.952423,778.392151 
	C506.093231,779.343872 507.115021,780.516052 508.396271,781.207581 
	C512.905334,783.641113 518.596802,782.636902 521.586792,779.048523 
	C524.401245,775.670776 524.440735,770.910400 521.681702,767.603699 
	C518.714294,764.047302 511.826202,763.133057 507.446411,765.714233 
	C503.114716,768.266968 502.159729,772.157104 504.952423,778.392151 
z"/>
<path fill="#000000" opacity="1.000000" stroke="none" 
	d="
M698.449463,622.204224 
	C692.139038,632.382263 673.857849,631.604126 665.560730,623.830261 
	C663.633911,622.024902 662.185791,619.872192 664.162537,617.281555 
	C666.254456,614.540100 668.646301,615.027100 671.072754,617.002808 
	C674.494263,619.788696 678.179688,621.956116 682.842834,621.658447 
	C687.909668,621.335083 691.616272,618.097168 691.685791,613.887146 
	C691.748230,610.108276 688.683228,607.211731 683.682251,606.495483 
	C682.043579,606.260742 680.359619,606.328247 678.695618,606.286743 
	C676.747192,606.238037 675.044617,605.725708 674.194946,603.777039 
	C673.350830,601.841125 674.056274,600.201111 675.374146,598.758362 
	C678.836853,594.967224 682.317322,591.192261 686.215515,586.948425 
	C680.924744,585.839600 676.163940,586.514832 671.457458,586.374817 
	C668.542908,586.288147 665.219238,586.466064 665.047668,582.595093 
	C664.866150,578.502563 668.293579,578.681824 671.163696,578.673218 
	C678.823730,578.650330 686.483948,578.663879 694.144043,578.660461 
	C696.187988,578.659546 698.227600,578.717957 699.282349,580.908081 
	C700.406067,583.241455 699.365051,585.143677 697.821838,586.784607 
	C694.217468,590.617249 690.533142,594.374695 686.783630,598.263855 
	C700.764465,605.753113 703.486267,611.338318 698.449463,622.204224 
z"/>
<path fill="#000000" opacity="1.000000" stroke="none" 
	d="
M528.347046,427.425232 
	C523.216736,426.710175 519.530579,428.473114 516.626953,432.186554 
	C514.885559,434.413666 512.684875,435.521332 510.219604,433.435181 
	C507.768188,431.360840 508.746735,428.923645 510.174713,426.706390 
	C516.066040,417.558319 532.976196,416.349670 540.155396,424.537567 
	C544.925720,429.978119 544.771912,439.168304 539.640564,445.181732 
	C535.738770,449.754272 531.114319,453.569550 526.331604,457.193329 
	C524.503906,458.578064 522.507385,459.805023 521.127747,462.131042 
	C527.230774,463.047485 533.172546,462.411743 539.081543,462.589569 
	C541.769470,462.670471 544.313782,462.965179 544.364136,466.390289 
	C544.414001,469.778046 541.996460,470.339172 539.234802,470.335510 
	C530.583740,470.324036 521.932739,470.335968 513.281677,470.358612 
	C510.877869,470.364929 508.489655,470.296234 507.444550,467.592621 
	C506.356232,464.777130 507.907745,462.742126 509.822723,461.033966 
	C515.406433,456.053131 521.089294,451.183624 526.689148,446.220612 
	C528.550415,444.570953 530.489990,442.938873 532.026184,441.006561 
	C536.474060,435.412079 535.266479,430.732574 528.347046,427.425232 
z"/>
<path fill="#000000" opacity="1.000000" stroke="none" 
	d="
M490.781921,467.405701 
	C490.711884,454.685272 490.711884,442.408417 490.711884,430.540375 
	C488.068542,428.743683 486.235809,430.492584 484.297913,430.398743 
	C482.214294,430.297882 480.689026,429.636566 480.079041,427.620361 
	C479.506470,425.727844 480.524323,424.322784 482.080994,423.484772 
	C485.907043,421.424805 489.983978,419.827484 494.247986,419.151581 
	C497.434143,418.646576 499.261383,420.713776 499.274658,423.908936 
	C499.332733,437.892365 499.307159,451.876129 499.299194,465.859772 
	C499.297821,468.253845 498.376038,470.191345 495.924530,470.785248 
	C493.457214,471.382965 491.787598,470.136780 490.781921,467.405701 
z"/>
<path fill="#000000" opacity="1.000000" stroke="none" 
	d="
M353.422974,508.508606 
	C356.881927,510.548035 360.074524,512.326111 363.144714,514.295044 
	C365.077698,515.534668 366.605103,517.285461 364.932739,519.657227 
	C363.516022,521.666443 361.517883,521.298523 359.605530,520.190247 
	C347.259918,513.035400 334.897827,505.908875 322.581512,498.704010 
	C320.404205,497.430328 318.031586,495.837677 319.941925,492.815582 
	C321.642273,490.125732 323.997559,491.247589 326.063782,492.451111 
	C335.095581,497.712311 344.094147,503.030487 353.422974,508.508606 
z"/>
<path fill="#000000" opacity="1.000000" stroke="none" 
	d="
M688.443054,507.503845 
	C681.383057,511.628815 674.649841,515.586975 667.886963,519.493835 
	C665.735901,520.736572 663.310486,522.479919 661.434814,519.351501 
	C659.753296,516.547058 662.059692,515.037415 664.062988,513.844177 
	C676.198853,506.615784 688.373535,499.452332 700.552490,492.296600 
	C702.569214,491.111664 704.706970,490.590729 706.253845,492.955841 
	C707.910522,495.488892 706.120544,497.087921 704.239380,498.237793 
	C699.135925,501.357361 693.926025,504.302734 688.443054,507.503845 
z"/>
<path fill="#000000" opacity="1.000000" stroke="none" 
	d="
M347.809875,701.870667 
	C340.592499,706.052246 333.701416,710.066833 326.773651,714.017151 
	C324.589600,715.262634 321.988800,716.802002 320.235657,713.837097 
	C318.507263,710.914001 320.998108,709.224121 323.174438,707.955750 
	C334.802948,701.178650 346.478790,694.482727 358.141907,687.765198 
	C358.716888,687.433960 359.312866,687.131409 359.921936,686.868652 
	C361.911438,686.010254 363.875183,685.689026 365.095459,687.997986 
	C366.284485,690.247864 365.165344,691.788330 363.212433,692.922485 
	C358.183289,695.843018 353.152222,698.760254 347.809875,701.870667 
z"/>
<path fill="#000000" opacity="1.000000" stroke="none" 
	d="
M399.953369,416.021240 
	C399.405518,413.576996 399.332520,411.537720 401.939362,410.871735 
	C404.084259,410.323761 405.371246,411.711487 406.344849,413.379517 
	C413.471680,425.589325 420.599640,437.798553 427.682190,450.034027 
	C428.783813,451.937103 429.927063,454.194733 427.340424,455.705780 
	C424.405823,457.420105 422.736542,455.336945 421.396515,453.034424 
	C414.284821,440.814819 407.184662,428.588531 399.953369,416.021240 
z"/>
<path fill="#000000" opacity="1.000000" stroke="none" 
	d="
M612.974487,425.041534 
	C615.450623,420.874817 617.687500,416.988281 620.065613,413.190125 
	C621.179504,411.411041 622.749817,409.965851 625.014282,411.288208 
	C627.191101,412.559387 627.061584,414.576355 625.955505,416.498932 
	C618.752563,429.019409 611.524109,441.525330 604.254639,454.007324 
	C603.139526,455.921997 601.353760,457.058777 599.264709,455.682556 
	C597.018494,454.202820 597.402710,451.955383 598.565735,449.928040 
	C603.274902,441.718903 608.045288,433.544891 612.974487,425.041534 
z"/>
<path fill="#000000" opacity="1.000000" stroke="none" 
	d="
M675.119507,699.939941 
	C670.943970,697.484436 667.044312,695.277588 663.222656,692.942993 
	C661.198486,691.706421 659.891602,689.941895 661.455139,687.570923 
	C662.863220,685.435608 664.891113,685.880676 666.742432,686.959839 
	C679.068909,694.143860 691.384583,701.346680 703.670471,708.599792 
	C705.753052,709.829224 707.778931,711.524414 706.065308,714.197449 
	C704.356384,716.863159 702.008240,715.599609 699.943726,714.403931 
	C691.761536,709.665344 683.598083,704.894409 675.119507,699.939941 
z"/>
<path fill="#000000" opacity="1.000000" stroke="none" 
	d="
M421.772461,767.731323 
	C416.858826,776.240601 412.139313,784.437500 407.392548,792.618530 
	C406.111450,794.826477 404.550598,797.406189 401.636414,795.860413 
	C398.256226,794.067505 400.084656,791.333862 401.418976,789.024475 
	C407.811432,777.960327 414.232422,766.912720 420.660095,755.868958 
	C421.242981,754.867432 421.887817,753.890015 422.605286,752.981445 
	C423.850525,751.404480 425.382507,750.442200 427.295685,751.844116 
	C429.010345,753.100586 429.324585,754.809998 428.245300,756.673340 
	C426.166016,760.263123 424.054535,763.834167 421.772461,767.731323 
z"/>
<path fill="#000000" opacity="1.000000" stroke="none" 
	d="
M616.137329,787.808472 
	C610.681519,778.458618 605.413574,769.425720 600.157715,760.385803 
	C599.407227,759.095032 598.581238,757.823975 598.029053,756.448059 
	C597.309204,754.654175 597.159668,752.798035 599.197449,751.661499 
	C601.239868,750.522217 602.765808,751.567810 603.845337,753.208008 
	C605.485657,755.700378 606.968384,758.297852 608.483459,760.871094 
	C613.872925,770.024597 619.259033,779.180176 624.613647,788.354065 
	C625.276489,789.489624 625.905579,790.694580 626.256836,791.949524 
	C626.678833,793.457336 626.500427,795.045410 624.920532,795.857849 
	C623.281616,796.700562 621.606262,796.528320 620.509644,794.896423 
	C619.031006,792.695862 617.714905,790.386108 616.137329,787.808472 
z"/>
<path fill="#000000" opacity="1.000000" stroke="none" 
	d="
M310.638794,606.982910 
	C305.213043,606.991760 300.244415,607.026428 295.276581,606.977783 
	C292.831085,606.953796 290.236542,606.494446 290.216705,603.474060 
	C290.196320,600.373230 292.934845,600.051819 295.290741,600.000488 
	C300.422394,599.888733 305.559387,599.879272 310.691193,599.980103 
	C313.249939,600.030396 316.710083,599.542786 316.907990,603.218628 
	C317.108459,606.941467 313.699402,606.702393 310.638794,606.982910 
z"/>
<path fill="#000000" opacity="1.000000" stroke="none" 
	d="
M728.659668,606.943542 
	C723.533508,606.964783 718.870544,607.020935 714.208679,606.972900 
	C711.764343,606.947754 709.103882,606.514282 709.175659,603.443848 
	C709.245483,600.456543 711.920288,599.974182 714.342712,599.942688 
	C719.670166,599.873535 725.000916,599.874329 730.327148,599.990723 
	C732.611145,600.040649 735.555603,599.910645 735.841248,602.980896 
	C736.167236,606.485352 733.101318,606.542297 730.619934,606.868896 
	C730.126709,606.933838 729.622559,606.915283 728.659668,606.943542 
z"/>
<path fill="#000000" opacity="1.000000" stroke="none" 
	d="
M514.685852,408.636719 
	C511.565308,409.571930 509.919556,408.154327 509.845764,405.671356 
	C509.633545,398.530273 509.716919,391.378662 509.783356,384.232117 
	C509.800476,382.389435 510.786621,381.045776 512.793152,380.895630 
	C514.530518,380.765656 516.039307,381.738098 516.027710,383.324982 
	C515.966553,391.687103 517.766968,400.136597 514.685852,408.636719 
z"/>
<path fill="#000000" opacity="1.000000" stroke="none" 
	d="
M516.247803,803.468445 
	C516.296936,809.883606 516.318970,815.847961 516.311462,821.812256 
	C516.308594,824.128845 515.869934,826.374146 512.961365,826.327087 
	C510.058350,826.280212 509.711304,823.975342 509.703613,821.696838 
	C509.684021,815.898254 509.697418,810.099487 509.719910,804.300903 
	C509.727448,802.351990 510.220490,800.545593 512.387268,800.075745 
	C514.649109,799.585266 515.688354,801.052490 516.247803,803.468445 
z"/>
<path fill="#000000" opacity="1.000000" stroke="none" 
	d="
M387.011719,426.869873 
	C388.922668,429.620300 390.664337,432.032501 392.294891,434.517609 
	C393.410645,436.218201 395.651001,438.247650 393.010223,439.988190 
	C390.585175,441.586578 389.190308,439.030792 387.926941,437.379150 
	C386.021240,434.887878 384.201874,432.324310 382.465820,429.711731 
	C381.415344,428.130951 379.540833,426.235138 381.641754,424.501373 
	C384.093903,422.477661 385.360657,425.106842 387.011719,426.869873 
z"/>
<path fill="#000000" opacity="1.000000" stroke="none" 
	d="
M302.546631,533.819946 
	C308.148346,533.859924 312.726196,536.458740 317.632629,537.891785 
	C319.010284,538.294067 319.978394,539.340027 319.557068,540.906799 
	C319.082886,542.670410 317.657288,543.254272 316.039825,542.735413 
	C311.620483,541.317688 307.192352,539.894165 302.881714,538.185303 
	C300.815460,537.366211 300.215881,535.714722 302.546631,533.819946 
z"/>
<path fill="#000000" opacity="1.000000" stroke="none" 
	d="
M632.230713,768.218933 
	C633.097595,767.014648 634.020630,766.677673 635.061462,767.002441 
	C637.017517,767.612915 645.138611,778.387451 645.047363,780.359314 
	C645.012939,781.104919 644.658997,782.045776 644.118286,782.513184 
	C643.054443,783.433044 641.718506,782.985352 640.990417,782.068970 
	C637.624756,777.832520 633.425964,774.124390 632.230713,768.218933 
z"/>
<path fill="#000000" opacity="1.000000" stroke="none" 
	d="
M578.906372,409.665161 
	C575.549500,411.269257 574.308289,409.533203 574.909607,406.973694 
	C575.925232,402.650604 577.535706,398.461548 579.004517,394.253998 
	C579.461182,392.945709 580.511230,391.857025 582.025269,392.257874 
	C583.782776,392.723145 584.151123,394.247253 583.719055,395.835388 
	C582.465027,400.444458 581.451111,405.140167 578.906372,409.665161 
z"/>
<path fill="#000000" opacity="1.000000" stroke="none" 
	d="
M332.393921,473.671387 
	C334.423187,471.926331 336.054810,472.831451 337.553345,473.928345 
	C340.888245,476.369568 344.181244,478.870026 347.439545,481.412720 
	C348.521423,482.256927 349.350311,483.354736 348.419189,484.823547 
	C347.836609,485.742554 346.747864,486.422607 345.902161,485.830078 
	C340.932495,482.348053 334.583130,480.417664 332.393921,473.671387 
z"/>
<path fill="#000000" opacity="1.000000" stroke="none" 
	d="
M709.166443,663.948975 
	C713.485657,665.221985 717.433289,666.453308 721.353882,667.765076 
	C723.117310,668.355042 725.172119,669.204834 724.557800,671.444641 
	C723.938904,673.701477 721.809814,673.443604 719.971863,672.864563 
	C716.343628,671.721252 712.636108,670.747986 709.148315,669.264771 
	C706.119141,667.976685 704.653442,666.001404 709.166443,663.948975 
z"/>
<path fill="#000000" opacity="1.000000" stroke="none" 
	d="
M347.168762,458.347290 
	C346.874023,454.068268 349.121643,454.171173 351.355347,455.883270 
	C354.648773,458.407745 357.643951,461.334930 360.654327,464.207825 
	C361.729187,465.233612 362.705780,466.635284 361.419556,468.161163 
	C359.996277,469.849701 358.326416,469.259247 357.029205,468.061401 
	C353.729248,465.014191 350.562439,461.822815 347.168762,458.347290 
z"/>
<path fill="#000000" opacity="1.000000" stroke="none" 
	d="
M662.293701,443.393799 
	C659.421143,446.642639 656.826538,449.681610 654.084290,452.580963 
	C652.894104,453.839355 651.345581,454.729401 649.776917,453.017395 
	C648.430603,451.547974 649.272400,450.212433 650.312500,449.050262 
	C653.087341,445.949738 655.877258,442.860596 658.742432,439.844086 
	C659.824585,438.704712 661.283752,437.920044 662.715149,439.162109 
	C664.164124,440.419342 663.555420,441.850403 662.293701,443.393799 
z"/>
<path fill="#000000" opacity="1.000000" stroke="none" 
	d="
M451.237061,802.223389 
	C450.003632,805.898682 448.914917,809.219604 447.673706,812.482544 
	C447.140503,813.884155 446.320496,815.408569 444.429382,814.890442 
	C442.267883,814.298096 442.343079,812.434570 442.818512,810.796692 
	C443.837830,807.284973 444.963470,803.796204 446.239441,800.370239 
	C446.848907,798.733948 447.520416,796.500977 449.953186,797.221313 
	C452.388824,797.942444 451.694580,800.045715 451.237061,802.223389 
z"/>
<path fill="#000000" opacity="1.000000" stroke="none" 
	d="
M304.482239,622.625732 
	C306.213684,622.530762 307.536682,622.325317 308.832428,622.436584 
	C309.863037,622.525208 310.627686,623.264038 310.830048,624.360107 
	C311.088654,625.760864 310.256714,626.696777 309.106232,626.995056 
	C304.291046,628.243530 299.345795,628.625122 294.393799,628.669739 
	C293.003418,628.682251 291.910828,627.696167 291.956848,626.077026 
	C291.996918,624.666809 293.017548,624.051025 294.232025,623.880493 
	C297.501740,623.421387 300.784424,623.055054 304.482239,622.625732 
z"/>
<path fill="#000000" opacity="1.000000" stroke="none" 
	d="
M733.153442,628.070923 
	C727.679626,629.115662 722.676941,628.002869 717.666931,627.157715 
	C716.243713,626.917664 715.278564,625.900452 715.469177,624.339905 
	C715.677490,622.634949 717.120056,622.289490 718.449219,622.402771 
	C722.884644,622.780945 727.328857,623.174316 731.723938,623.856934 
	C733.873962,624.190796 734.858032,625.638367 733.153442,628.070923 
z"/>
<path fill="#000000" opacity="1.000000" stroke="none" 
	d="
M313.660095,512.911255 
	C317.679657,514.627930 321.337311,516.187683 324.932404,517.880310 
	C326.514191,518.625000 327.860657,519.832031 326.899719,521.794739 
	C325.894012,523.848816 324.135101,523.148926 322.591888,522.485168 
	C319.091827,520.979858 315.604065,519.442627 312.151215,517.832764 
	C310.654236,517.134827 308.916992,516.308105 309.513733,514.214417 
	C310.054474,512.317078 311.780212,512.661316 313.660095,512.911255 
z"/>
<path fill="#000000" opacity="1.000000" stroke="none" 
	d="
M700.287720,518.385803 
	C704.554871,516.401489 708.472595,514.555481 712.481201,512.934326 
	C714.039124,512.304260 715.945435,512.130615 716.721619,514.198181 
	C717.404907,516.018372 715.970276,517.018005 714.601257,517.636597 
	C710.660400,519.417236 706.657043,521.059692 702.671570,522.740906 
	C701.473816,523.246155 700.331909,523.068359 699.490967,522.073792 
	C698.415955,520.802368 698.804626,519.627380 700.287720,518.385803 
z"/>
<path fill="#000000" opacity="1.000000" stroke="none" 
	d="
M537.932495,394.592468 
	C536.722229,397.045563 538.536438,401.536316 534.379028,400.816498 
	C530.703979,400.180206 532.494019,396.504761 532.683533,394.053986 
	C532.913208,391.082275 533.380981,388.127350 533.795776,385.172180 
	C534.025940,383.532013 534.846375,382.211792 536.666931,382.392395 
	C538.544739,382.578644 538.974792,384.160767 538.864014,385.742004 
	C538.666870,388.554626 538.306274,391.355804 537.932495,394.592468 
z"/>
<path fill="#000000" opacity="1.000000" stroke="none" 
	d="
M423.436920,797.509399 
	C424.470825,795.186890 425.257843,793.166260 426.253967,791.254578 
	C427.048920,789.728882 428.199982,788.315125 430.197327,789.298340 
	C431.936920,790.154663 431.673767,791.856140 431.091492,793.239990 
	C429.545593,796.913879 427.865906,800.534424 426.138214,804.127563 
	C425.364044,805.737549 424.099670,807.015564 422.180115,805.936035 
	C420.570282,805.030701 420.818115,803.450317 421.468201,801.963440 
	C422.067383,800.592896 422.675934,799.226501 423.436920,797.509399 
z"/>
<path fill="#000000" opacity="1.000000" stroke="none" 
	d="
M679.540161,480.774719 
	C683.050293,478.215271 686.245422,475.862915 689.496277,473.590118 
	C690.782654,472.690765 692.345947,472.150482 693.514526,473.593964 
	C694.946533,475.362854 693.606079,476.741150 692.293884,477.759247 
	C689.159851,480.190826 685.958496,482.542297 682.694519,484.796112 
	C681.511353,485.613129 679.999634,486.564362 678.628845,485.244141 
	C677.024719,483.699219 677.929932,482.266602 679.540161,480.774719 
z"/>
<path fill="#000000" opacity="1.000000" stroke="none" 
	d="
M600.775757,401.936920 
	C601.991882,400.563660 603.106140,399.953583 604.447083,401.037048 
	C605.506775,401.893280 605.553284,403.196136 605.121033,404.241394 
	C603.412231,408.373444 601.601318,412.466858 599.692139,416.510315 
	C599.091187,417.783020 597.869019,418.556091 596.382080,417.851990 
	C594.671204,417.041901 594.616272,415.528961 595.266174,414.031342 
	C596.981445,410.078369 598.790344,406.166046 600.775757,401.936920 
z"/>
<path fill="#000000" opacity="1.000000" stroke="none" 
	d="
M352.257324,750.513306 
	C350.611420,751.796082 349.132233,752.904907 347.596191,751.255554 
	C346.048462,749.593689 347.221283,748.069946 348.441711,746.938965 
	C351.488464,744.115601 354.642334,741.404724 357.816589,738.723694 
	C358.897461,737.810730 360.245239,737.417542 361.407928,738.602844 
	C362.774017,739.995728 362.172211,741.451172 361.021240,742.549011 
	C358.255585,745.187012 355.369263,747.698547 352.257324,750.513306 
z"/>
<path fill="#000000" opacity="1.000000" stroke="none" 
	d="
M691.919006,729.151245 
	C693.359985,730.629456 694.691650,731.966370 693.011963,733.598755 
	C691.675598,734.897461 690.165283,734.008667 688.942139,733.176758 
	C685.662048,730.945557 682.412476,728.663818 679.237000,726.287109 
	C677.901611,725.287598 676.502441,723.886047 677.913391,722.144104 
	C679.218750,720.532593 680.968201,721.261658 682.382446,722.244141 
	C685.505676,724.413879 688.560547,726.681946 691.919006,729.151245 
z"/>
<path fill="#000000" opacity="1.000000" stroke="none" 
	d="
M641.444336,424.708984 
	C642.884705,423.514252 644.106689,423.334534 645.199646,424.558533 
	C646.293152,425.783295 645.812561,427.077209 645.013000,428.199066 
	C642.514832,431.704163 639.986511,435.189209 637.395935,438.626221 
	C636.453735,439.876221 635.110107,440.881622 633.564331,439.815582 
	C632.005127,438.740356 632.490479,437.092316 633.362793,435.829285 
	C635.903137,432.151093 638.576660,428.564819 641.444336,424.708984 
z"/>
<path fill="#000000" opacity="1.000000" stroke="none" 
	d="
M374.384064,453.903259 
	C369.819061,451.007019 367.302246,446.624542 363.940918,443.035736 
	C363.028320,442.061371 362.361145,440.727234 363.577850,439.518036 
	C364.882385,438.221466 366.370422,438.547119 367.499176,439.763977 
	C370.519196,443.019653 373.581726,446.255341 376.336639,449.729492 
	C377.756348,451.519836 377.787140,453.507690 374.384064,453.903259 
z"/>
<path fill="#000000" opacity="1.000000" stroke="none" 
	d="
M302.841675,584.264832 
	C299.802887,583.880493 297.179382,583.589783 294.582764,583.143066 
	C292.992249,582.869507 291.714661,582.027588 292.054932,580.144043 
	C292.344666,578.540344 293.731018,578.102966 295.090271,578.232239 
	C299.355286,578.637634 303.615784,579.122864 307.858246,579.718201 
	C309.578339,579.959534 311.222504,580.794434 310.756683,582.922424 
	C310.376129,584.660767 308.761627,584.950684 307.188629,584.817566 
	C305.876465,584.706421 304.574707,584.472290 302.841675,584.264832 
z"/>
<path fill="#000000" opacity="1.000000" stroke="none" 
	d="
M385.886047,772.890320 
	C388.336853,770.656494 389.245544,764.901733 393.070190,767.703857 
	C396.435913,770.169739 391.737366,772.963196 390.360504,775.452820 
	C389.171204,777.603333 387.508087,779.505005 385.953217,781.435181 
	C384.979401,782.644043 383.719238,783.649536 382.143860,782.421814 
	C380.653564,781.260437 381.054871,779.747070 381.924744,778.423340 
	C383.103363,776.629822 384.423920,774.929504 385.886047,772.890320 
z"/>
<path fill="#000000" opacity="1.000000" stroke="none" 
	d="
M443.780762,400.142517 
	C443.398987,397.217773 440.417450,393.662018 444.244873,392.464600 
	C447.562653,391.426544 447.681305,395.679840 448.550232,397.975098 
	C449.663177,400.915039 450.519287,403.961060 451.324005,407.004242 
	C451.624146,408.139191 451.380981,409.447968 450.093536,409.976227 
	C448.568146,410.602142 447.388519,409.734711 446.838379,408.454163 
	C445.725800,405.864471 444.856232,403.170319 443.780762,400.142517 
z"/>
<path fill="#000000" opacity="1.000000" stroke="none" 
	d="
M649.534485,757.151672 
	C648.653137,755.480957 648.650696,754.316345 650.174011,753.488586 
	C651.402344,752.821106 652.499756,753.162109 653.330872,754.051514 
	C656.267395,757.193420 659.161621,760.377197 661.991394,763.615417 
	C662.995911,764.764954 663.827148,766.219543 662.348022,767.552307 
	C660.962463,768.800720 659.499268,768.185608 658.402710,767.012939 
	C655.467773,763.873962 652.620178,760.653198 649.534485,757.151672 
z"/>
<path fill="#000000" opacity="1.000000" stroke="none" 
	d="
M420.967712,402.403198 
	C422.673248,399.575745 424.468170,400.057495 425.604553,402.237000 
	C427.587067,406.039490 429.258972,410.010345 430.924988,413.967926 
	C431.521973,415.386017 431.583557,417.023499 429.855469,417.822144 
	C428.069855,418.647430 426.958923,417.400085 426.322784,416.027771 
	C424.313568,411.693237 421.967010,407.487061 420.967712,402.403198 
z"/>
<path fill="#000000" opacity="1.000000" stroke="none" 
	d="
M321.881592,684.684143 
	C324.087921,683.912231 326.289062,682.691284 327.223969,685.443298 
	C327.958496,687.605408 325.995636,688.621521 324.315002,689.404053 
	C321.176849,690.865173 318.031250,692.315125 314.843628,693.662964 
	C313.133728,694.385925 311.125092,694.989624 310.159576,692.733154 
	C309.263550,690.639038 311.172394,689.847290 312.610504,689.116638 
	C315.550171,687.623230 318.548828,686.245972 321.881592,684.684143 
z"/>
<path fill="#000000" opacity="1.000000" stroke="none" 
	d="
M671.239014,466.370056 
	C670.222961,467.267792 669.514893,467.984955 668.689026,468.520264 
	C667.485962,469.300171 666.171692,469.539124 665.120422,468.285126 
	C664.092651,467.059235 664.368713,465.692780 665.418152,464.711487 
	C668.675659,461.665314 671.984497,458.668091 675.390137,455.790039 
	C676.364380,454.966705 677.808533,454.337402 678.949341,455.664886 
	C680.209229,457.130798 679.446411,458.456696 678.301880,459.577911 
	C676.055847,461.778229 673.766052,463.934021 671.239014,466.370056 
z"/>
<path fill="#000000" opacity="1.000000" stroke="none" 
	d="
M319.066467,664.757446 
	C320.515442,667.051514 319.399719,668.307495 317.698975,668.909607 
	C313.481415,670.402649 309.196594,671.710632 304.915375,673.016113 
	C303.532867,673.437683 302.194122,673.162354 301.573029,671.673767 
	C301.041351,670.399475 301.643951,669.185242 302.782684,668.770691 
	C307.989014,666.875244 312.917999,663.869873 319.066467,664.757446 
z"/>
<path fill="#000000" opacity="1.000000" stroke="none" 
	d="
M715.845215,540.976074 
	C713.717285,541.572021 711.981384,542.122925 710.208618,542.500854 
	C708.811401,542.798645 707.486938,542.489441 707.003540,540.938843 
	C706.515259,539.372620 707.427551,538.333130 708.789307,537.876404 
	C713.015015,536.459290 717.259521,535.088928 721.540405,533.851562 
	C722.844666,533.474548 724.288086,533.765198 724.837402,535.303162 
	C725.498413,537.153503 724.280884,538.101257 722.796021,538.656921 
	C720.632996,539.466370 718.415588,540.130371 715.845215,540.976074 
z"/>
<path fill="#000000" opacity="1.000000" stroke="none" 
	d="
M490.736572,824.895752 
	C487.763550,824.759277 487.609741,822.838379 487.748291,820.977905 
	C488.043518,817.013367 488.443604,813.052551 488.956726,809.110535 
	C489.155731,807.581665 489.944153,806.164856 491.798523,806.211426 
	C493.139709,806.245117 494.181885,807.372986 493.967224,808.500610 
	C492.936523,813.914124 494.765869,819.833069 490.736572,824.895752 
z"/>
<path fill="#000000" opacity="1.000000" stroke="none" 
	d="
M700.873901,689.025635 
	C699.164551,687.924988 698.219971,686.778381 699.202393,685.124451 
	C700.166809,683.500732 701.711792,683.723938 703.150879,684.369019 
	C706.773926,685.993042 710.385010,687.647888 713.955383,689.383911 
	C715.330811,690.052734 716.688660,691.092285 715.953796,692.856506 
	C715.075134,694.966003 713.226135,694.375610 711.697937,693.754517 
	C708.172058,692.321533 704.706970,690.738953 700.873901,689.025635 
z"/>
<path fill="#000000" opacity="1.000000" stroke="none" 
	d="
M344.140503,722.166138 
	C346.122437,721.077576 347.794891,721.086853 348.714264,722.878418 
	C349.589111,724.583191 348.098572,725.662048 346.930939,726.523438 
	C343.739136,728.878052 340.484131,731.149353 337.207977,733.385986 
	C335.900391,734.278687 334.322693,734.749329 333.231049,733.230103 
	C332.183868,731.772705 332.910309,730.292236 334.193939,729.325745 
	C337.362396,726.940125 340.620789,724.674011 344.140503,722.166138 
z"/>
<path fill="#000000" opacity="1.000000" stroke="none" 
	d="
M554.832275,396.057800 
	C555.453430,393.408691 555.958496,391.162323 556.557556,388.941376 
	C556.963806,387.435150 557.716797,386.001251 559.539856,386.228058 
	C561.625366,386.487549 561.458008,388.369965 561.258484,389.735718 
	C560.664917,393.799164 559.898193,397.841400 559.058838,401.862640 
	C558.751831,403.333191 557.974487,404.873871 556.134949,404.597473 
	C554.101318,404.291870 553.650085,402.639771 553.905396,400.829987 
	C554.111877,399.366211 554.466980,397.923431 554.832275,396.057800 
z"/>
<path fill="#000000" opacity="1.000000" stroke="none" 
	d="
M714.541443,648.660400 
	C712.665710,647.869507 711.480164,646.970154 712.139282,645.141052 
	C712.711243,643.554016 714.269409,643.560974 715.510559,643.787964 
	C719.720398,644.557922 723.906799,645.470032 728.075623,646.441772 
	C729.402283,646.750916 730.626953,647.539490 730.411438,649.179382 
	C730.155884,651.123352 728.561707,651.479919 727.049500,651.221924 
	C722.990356,650.529297 718.965881,649.632812 714.541443,648.660400 
z"/>
<path fill="#000000" opacity="1.000000" stroke="none" 
	d="
M304.093506,650.257019 
	C301.879578,650.615051 300.094025,651.006775 298.287415,651.187622 
	C297.031433,651.313354 295.970306,650.762939 295.706635,649.384827 
	C295.449310,648.039917 296.105682,647.063110 297.369812,646.713562 
	C301.997528,645.433777 306.634247,644.141602 311.444885,643.765259 
	C312.659180,643.670288 313.774872,644.230469 314.010071,645.621338 
	C314.243835,647.003967 313.390442,647.904724 312.218842,648.249634 
	C309.678894,648.997437 307.084808,649.561462 304.093506,650.257019 
z"/>
<path fill="#000000" opacity="1.000000" stroke="none" 
	d="
M308.334656,563.092896 
	C304.852264,562.303894 301.774292,561.667847 298.740479,560.865051 
	C297.156433,560.445923 295.202148,559.893738 295.559692,557.744263 
	C295.980194,555.216492 298.214294,555.585693 299.948700,555.873413 
	C303.205627,556.413574 306.448425,557.104248 309.639832,557.948730 
	C311.440186,558.425171 314.222198,558.505188 313.938507,561.134094 
	C313.596802,564.300049 310.760071,563.118286 308.334656,563.092896 
z"/>
<path fill="#000000" opacity="1.000000" stroke="none" 
	d="
M600.158630,791.971313 
	C601.807251,795.654053 603.329224,798.982239 604.776978,802.342346 
	C605.400635,803.789734 605.728455,805.372498 603.890686,806.181519 
	C602.209290,806.921753 600.916260,806.016296 600.214844,804.534180 
	C598.578796,801.077148 597.052002,797.567322 595.536133,794.055054 
	C594.877747,792.529358 594.012878,790.777283 596.051880,789.686035 
	C598.057434,788.612610 599.058105,790.208191 600.158630,791.971313 
z"/>
<path fill="#000000" opacity="1.000000" stroke="none" 
	d="
M471.795288,809.782593 
	C471.053070,812.927124 470.506348,815.705994 469.770874,818.434021 
	C469.363495,819.945129 468.468201,821.317261 466.598755,820.935730 
	C464.638336,820.535706 464.566193,818.821655 464.861481,817.344055 
	C465.610779,813.594666 466.501526,809.870300 467.451721,806.165710 
	C467.865845,804.551208 468.480713,802.652222 470.643738,803.037903 
	C473.291412,803.510010 472.610443,805.644958 472.324890,807.440918 
	C472.220459,808.097839 472.051453,808.744385 471.795288,809.782593 
z"/>
<path fill="#000000" opacity="1.000000" stroke="none" 
	d="
M487.828430,390.758972 
	C488.258331,387.590973 486.007507,382.967346 489.563873,382.580322 
	C493.844513,382.114471 492.284698,387.240265 493.105408,389.917664 
	C493.815979,392.235626 493.803162,394.792603 493.971893,397.253448 
	C494.091034,398.991089 493.732422,400.753204 491.623688,400.967834 
	C489.725830,401.160950 489.170135,399.520538 488.883057,398.050964 
	C488.441467,395.790894 488.194031,393.492920 487.828430,390.758972 
z"/>
<path fill="#000000" opacity="1.000000" stroke="none" 
	d="
M581.019897,814.982666 
	C576.606079,810.762085 576.286377,805.133789 574.806274,799.981018 
	C574.467712,798.802429 575.154175,797.673218 576.379944,797.191162 
	C577.454834,796.768433 578.486572,797.242310 578.904480,798.181885 
	C580.986877,802.863647 582.649902,807.703552 583.486450,812.769653 
	C583.694641,814.030823 582.775269,814.915222 581.019897,814.982666 
z"/>
<path fill="#000000" opacity="1.000000" stroke="none" 
	d="
M665.828308,743.058960 
	C664.610657,741.483826 663.092529,740.170837 664.947144,738.543945 
	C666.389038,737.279175 667.771729,738.128601 668.946960,739.146790 
	C671.833557,741.647339 674.716125,744.155518 677.515991,746.751709 
	C678.748535,747.894653 680.013123,749.383728 678.649292,751.068542 
	C677.178528,752.885376 675.550659,751.590820 674.310425,750.567200 
	C671.492920,748.241699 668.813599,745.748657 665.828308,743.058960 
z"/>
<path fill="#000000" opacity="1.000000" stroke="none" 
	d="
M723.203247,578.902100 
	C726.108032,578.652832 728.582275,578.347778 731.063171,578.277405 
	C732.389893,578.239746 733.829529,578.559326 734.032715,580.274719 
	C734.224792,581.897034 733.133850,582.848755 731.755859,583.039001 
	C727.328125,583.650024 722.879089,584.123718 718.427795,584.537781 
	C717.012268,584.669495 715.709656,584.126038 715.519409,582.472900 
	C715.330017,580.826599 716.476257,580.090393 717.872986,579.787903 
	C719.492188,579.437378 721.140015,579.219543 723.203247,578.902100 
z"/>
<path fill="#000000" opacity="1.000000" stroke="none" 
	d="
M466.942139,386.290253 
	C471.730194,390.923676 471.682617,396.946869 472.067627,402.739349 
	C472.175262,404.358704 470.559326,405.286041 468.817657,404.147278 
	C466.142853,402.398346 464.479065,389.055664 466.942139,386.290253 
z"/>
<path fill="#000000" opacity="1.000000" stroke="none" 
	d="
M376.406555,753.977051 
	C378.150208,757.298157 375.365234,758.730957 373.978729,760.512329 
	C372.061005,762.976318 369.691956,765.096497 367.451385,767.297913 
	C366.585876,768.148254 365.464539,768.562073 364.281097,767.888794 
	C363.336792,767.351624 362.977448,766.515259 363.179840,765.386841 
	C363.701294,762.479065 373.094849,753.993591 376.406555,753.977051 
z"/>
<path fill="#000000" opacity="1.000000" stroke="none" 
	d="
M713.572754,562.963501 
	C711.362427,560.924072 711.885864,559.373901 714.169189,558.752808 
	C718.458618,557.586060 722.821228,556.670044 727.183105,555.798584 
	C728.491333,555.537170 729.964294,555.807129 730.362793,557.445923 
	C730.825562,559.348694 729.569519,560.216064 727.978210,560.527466 
	C723.311279,561.440613 718.854858,563.502808 713.572754,562.963501 
z"/>
<path fill="#000000" opacity="1.000000" stroke="none" 
	d="
M532.855103,815.882141 
	C532.651489,813.471191 532.482300,811.492371 532.324158,809.512695 
	C532.205627,808.029724 532.670349,806.843689 534.236633,806.487000 
	C535.867676,806.115601 536.797607,807.087036 537.092285,808.522400 
	C538.025696,813.069946 538.520142,817.673462 538.475403,822.322815 
	C538.463379,823.571167 538.066528,824.675964 536.662720,824.901917 
	C535.003235,825.169067 534.194092,824.072693 533.905640,822.685669 
	C533.468323,820.582581 533.221802,818.439819 532.855103,815.882141 
z"/>
<path fill="#000000" opacity="1.000000" stroke="none" 
	d="
M555.864990,802.945496 
	C558.723816,805.085205 562.141479,816.602783 561.148193,819.304749 
	C560.450439,821.202820 559.204834,821.421387 557.667908,820.355530 
	C555.013123,818.514709 553.420471,805.803772 555.864990,802.945496 
z"/>
</svg>